
<svg width="408" height="336.5" xmlns="http://www.w3.org/2000/svg" style="font-family:Futura,sans-serif;">
  <rect
    x="1.5"
    y="1.5"
    width="405"
    height="333.5"
    fill="#F1F1F1"
    stroke="#A8DADC"
    stroke-width="3"
    rx="12"
    ry="12"
  />
  <g transform="translate(20,12.5) scale(0.075)" style="color:#457B9D"><path fill="currentColor" d="M128 0C57.308 0 0 57.308 0 128c0 70.693 57.308 128 128 128 70.693 0 128-57.307 128-128C256 57.308 198.693 0 128 0m0 33.805c51.939 0 94.195 42.256 94.195 94.195 0 51.94-42.256 94.195-94.195 94.195-51.939 0-94.195-42.255-94.195-94.195 0-51.939 42.256-94.195 94.195-94.195m-12.5 121.838h-.113a6.342 6.342 0 0 1-4.953-2.528L81.56 114.732a6.34 6.34 0 0 1 10.131-7.62l23.993 31.893 6.863-8.478a6.34 6.34 0 0 1 4.926-2.35h.008a6.331 6.331 0 0 1 4.93 2.364l6.59 8.187 37.692-48.594a6.338 6.338 0 0 1 10.015 7.77L144.1 152.837a6.338 6.338 0 0 1-4.95 2.453h-.057a6.335 6.335 0 0 1-4.938-2.364l-6.697-8.319-7.033 8.686a6.336 6.336 0 0 1-4.926 2.35"/></g><text x="45" y="28" fill="#1D3557" font-size="16" font-family="Futura">🌈Abstract WakaTime Stats</text>
  <g transform="translate(0, 40) scale(1, 1)">
      <text x="200" y="22.5" font-size="12" text-anchor="middle" fill="#2A2A2A" font-weight="bold">I mostly code in Python</text>
      <defs>
                <path id="dayPath0" fill="none" d="
                    M 299.6929638050515 144.17181062104058
                    A 96 96 0 0 1 163.00574751969077 223.3070922424007
                " />
                

                <path id="timePath0" fill="none" d="
                M 256 136.5
                A 52 52 0 0 1 178.1081691910662 181.59559953433978
                " />
            

                <path id="pctPath0" fill="none" d="
                M 268 136.5
                A 64 64 0 0 1 172.13313131208145 192.00227634995665
                " />
            

                <path id="dayPath1" fill="none" d="
                    M 149.69940523239308 215.66719906554823
                    A 96 96 0 0 1 115.4207321546844 99.49036195816231
                " />
                

                <path id="timePath1" fill="none" d="
                M 178.1081691910662 181.59559953433978
                A 52 52 0 0 1 157.775059640337 112.68288664120696
                " />
            

                <path id="pctPath1" fill="none" d="
                M 172.13313131208145 192.00227634995665
                A 64 64 0 0 1 147.107765711184 107.18662971225471
                " />
            

                <path id="dayPath2" fill="none" d="
                    M 122.44843920193503 85.85078548092268
                    A 96 96 0 0 1 181.96994633223562 43.06190961178936
                " />
                

                <path id="timePath2" fill="none" d="
                M 157.775059640337 112.68288664120696
                A 52 52 0 0 1 196.1498857109223 85.09595632979426
                " />
            

                <path id="pctPath2" fill="none" d="
                M 147.107765711184 107.18662971225471
                A 64 64 0 0 1 194.3383208749813 73.23348471359294
                " />
            

                <path id="dayPath3" fill="none" d="
                    M 197.13771895506324 40.74557922027671
                    A 96 96 0 0 1 262.9251372315182 60.71195211481728
                " />
                

                <path id="timePath3" fill="none" d="
                M 196.1498857109223 85.09595632979426
                A 52 52 0 0 1 239.09634699445263 98.13013646564566
                " />
            

                <path id="pctPath3" fill="none" d="
                M 194.3383208749813 73.23348471359294
                A 64 64 0 0 1 247.19550399317248 89.27555257310235
                " />
            

                <path id="dayPath4" fill="none" d="
                    M 274.2469190234696 71.06781856219297
                    A 96 96 0 0 1 295.4927948412856 107.42993821591674
                " />
                

                <path id="timePath4" fill="none" d="
                M 239.09634699445263 98.13013646564566
                A 52 52 0 0 1 254.65845368096984 124.76453790202397
                " />
            

                <path id="pctPath4" fill="none" d="
                M 247.19550399317248 89.27555257310235
                A 64 64 0 0 1 266.34886606888597 122.05635434095258
                " />
            </defs>

            <path d="
                M 284 136.5
                A 80 80 0 0 1 164.16641414010184 205.8778454374458
                L 184.08320707005092 171.1889227187229
                A 40 40 0 0 0 244 136.5
                Z
            " fill="#E63946" />
            

                <text font-size="9" fill="#2A2A2A">
                    <textPath href="#dayPath0" startOffset="50%" text-anchor="middle">Python</textPath>
                </text>
                

                <text font-size="8" fill="#2A2A2A">
                <textPath href="#timePath0" startOffset="50%" text-anchor="middle">89:47</textPath>
                </text>
            

                <text font-size="8" fill="#2A2A2A">
                <textPath href="#pctPath0" startOffset="50%" text-anchor="middle">33.3%</textPath>
                </text>
            

            <path d="
                M 164.16641414010184 205.8778454374458
                A 80 80 0 0 1 132.88470713898 99.8582871403184
                L 168.44235356949 118.1791435701592
                A 40 40 0 0 0 184.08320707005092 171.1889227187229
                Z
            " fill="#c81b28" />
            

                <text font-size="9" fill="#2A2A2A">
                    <textPath href="#dayPath1" startOffset="50%" text-anchor="middle">TypeScript</textPath>
                </text>
                

                <text font-size="8" fill="#2A2A2A">
                <textPath href="#timePath1" startOffset="50%" text-anchor="middle">65:28</textPath>
                </text>
            

                <text font-size="8" fill="#2A2A2A">
                <textPath href="#pctPath1" startOffset="50%" text-anchor="middle">24.3%</textPath>
                </text>
            

            <path d="
                M 132.88470713898 99.8582871403184
                A 80 80 0 0 1 191.9229010937266 57.416855891991176
                L 197.96145054686332 96.9584279459956
                A 40 40 0 0 0 168.44235356949 118.1791435701592
                Z
            " fill="#be111e" />
            

                <text font-size="9" fill="#2A2A2A">
                    <textPath href="#dayPath2" startOffset="50%" text-anchor="middle">CSS</textPath>
                </text>
                

                <text font-size="8" fill="#2A2A2A">
                <textPath href="#timePath2" startOffset="50%" text-anchor="middle">40:29</textPath>
                </text>
            

                <text font-size="8" fill="#2A2A2A">
                <textPath href="#pctPath2" startOffset="50%" text-anchor="middle">15.0%</textPath>
                </text>
            

            <path d="
                M 191.9229010937266 57.416855891991176
                A 80 80 0 0 1 257.9943799914656 77.46944071637793
                L 230.9971899957328 106.98472035818897
                A 40 40 0 0 0 197.96145054686332 96.9584279459956
                Z
            " fill="#b40714" />
            

                <text font-size="9" fill="#2A2A2A">
                    <textPath href="#dayPath3" startOffset="50%" text-anchor="middle">JavaScript</textPath>
                </text>
                

                <text font-size="8" fill="#2A2A2A">
                <textPath href="#timePath3" startOffset="50%" text-anchor="middle">38:18</textPath>
                </text>
            

                <text font-size="8" fill="#2A2A2A">
                <textPath href="#pctPath3" startOffset="50%" text-anchor="middle">14.2%</textPath>
                </text>
            

            <path d="
                M 257.9943799914656 77.46944071637793
                A 80 80 0 0 1 281.9360825861075 118.44544292619074
                L 242.96804129305374 127.47272146309537
                A 40 40 0 0 0 230.9971899957328 106.98472035818897
                Z
            " fill="#aa000a" />
            

                <text font-size="9" fill="#2A2A2A">
                    <textPath href="#dayPath4" startOffset="50%" text-anchor="middle">HTML</textPath>
                </text>
                

                <text font-size="8" fill="#2A2A2A">
                <textPath href="#timePath4" startOffset="50%" text-anchor="middle">25:51</textPath>
                </text>
            

                <text font-size="8" fill="#2A2A2A">
                <textPath href="#pctPath4" startOffset="50%" text-anchor="middle">9.6%</textPath>
                </text>
            

            <path d="
                M 281.9360825861075 118.44544292619074
                A 80 80 0 0 1 283.55899863489805 128.11157129062366
                L 243.77949931744902 132.30578564531183
                A 40 40 0 0 0 242.96804129305374 127.47272146309537
                Z
            " fill="#a00000" />
            

            <path d="
                M 283.55899863489805 128.11157129062366
                A 80 80 0 0 1 283.93723723139453 133.33170332642993
                L 243.96861861569727 134.91585166321497
                A 40 40 0 0 0 243.77949931744902 132.30578564531183
                Z
            " fill="#960000" />
            

            <path d="
                M 283.93723723139453 133.33170332642993
                A 80 80 0 0 1 284 136.50000000000006
                L 244 136.50000000000003
                A 40 40 0 0 0 243.96861861569727 134.91585166321497
                Z
            " fill="#8c0000" />
            
      <text x="200" y="266.5" font-size="12" text-anchor="middle" fill="#2A2A2A"><tspan font-weight="bold">Total:</tspan> 273 hrs 40 mins</text>
    </g>
</svg>