
<svg width="408" height="226.5" xmlns="http://www.w3.org/2000/svg" style="font-family:Comic Sans MS,sans-serif;">
  <rect
    x="1.5"
    y="1.5"
    width="405"
    height="223.5"
    fill="#fff0f6"
    stroke="#ffb6c1"
    stroke-width="3"
    rx="12"
    ry="12"
  />
  <g transform="translate(20,12.5) scale(0.075)" style="color:#db3a84"><path fill="currentColor" d="M128 0C57.308 0 0 57.308 0 128c0 70.693 57.308 128 128 128 70.693 0 128-57.307 128-128C256 57.308 198.693 0 128 0m0 33.805c51.939 0 94.195 42.256 94.195 94.195 0 51.94-42.256 94.195-94.195 94.195-51.939 0-94.195-42.255-94.195-94.195 0-51.939 42.256-94.195 94.195-94.195m-12.5 121.838h-.113a6.342 6.342 0 0 1-4.953-2.528L81.56 114.732a6.34 6.34 0 0 1 10.131-7.62l23.993 31.893 6.863-8.478a6.34 6.34 0 0 1 4.926-2.35h.008a6.331 6.331 0 0 1 4.93 2.364l6.59 8.187 37.692-48.594a6.338 6.338 0 0 1 10.015 7.77L144.1 152.837a6.338 6.338 0 0 1-4.95 2.453h-.057a6.335 6.335 0 0 1-4.938-2.364l-6.697-8.319-7.033 8.686a6.336 6.336 0 0 1-4.926 2.35"/></g><text x="45" y="28" fill="#e75480" font-size="16" font-family="Comic Sans MS">💎 Code Queen WakaTime Stats</text>
  <g transform="translate(0, 40) scale(1, 1)">
      <text x="200" y="22.5" font-size="12" text-anchor="middle" fill="#cc3f6c" font-weight="bold">I mostly code in Python</text>
      <rect x="30" y="46.5" width="30" height="60" fill="#ff69b4" rx="3" ry="3" />
<text x="45" y="42.5" font-size="9" text-anchor="middle" fill="#cc3f6c">89:47</text>
<text x="45" y="118.5" font-weight="bold" font-size="10" text-anchor="middle" fill="#cc3f6c">Python</text>
<text x="45" y="130.5" font-size="9" text-anchor="middle" fill="#cc3f6c">33.1%</text>
<rect x="75" y="62.75134379484837" width="30" height="43.74865620515163" fill="#ff69b4" rx="3" ry="3" />
<text x="90" y="58.75134379484837" font-size="9" text-anchor="middle" fill="#cc3f6c">65:28</text>
<text x="90" y="118.5" font-weight="bold" font-size="10" text-anchor="middle" fill="#cc3f6c">TypeScript</text>
<text x="90" y="130.5" font-size="9" text-anchor="middle" fill="#cc3f6c">24.1%</text>
<rect x="120" y="79.44013097554004" width="30" height="27.059869024459953" fill="#ff69b4" rx="3" ry="3" />
<text x="135" y="75.44013097554004" font-size="9" text-anchor="middle" fill="#cc3f6c">40:29</text>
<text x="135" y="118.5" font-weight="bold" font-size="10" text-anchor="middle" fill="#cc3f6c">CSS</text>
<text x="135" y="130.5" font-size="9" text-anchor="middle" fill="#cc3f6c">14.9%</text>
<rect x="165" y="79.82796579785852" width="30" height="26.672034202141468" fill="#ff69b4" rx="3" ry="3" />
<text x="180" y="75.82796579785852" font-size="9" text-anchor="middle" fill="#cc3f6c">39:54</text>
<text x="180" y="118.5" font-weight="bold" font-size="10" text-anchor="middle" fill="#cc3f6c">JavaScript</text>
<text x="180" y="130.5" font-size="9" text-anchor="middle" fill="#cc3f6c">14.7%</text>
<rect x="210" y="89.22604206723128" width="30" height="17.27395793276872" fill="#ff69b4" rx="3" ry="3" />
<text x="225" y="85.22604206723128" font-size="9" text-anchor="middle" fill="#cc3f6c">25:51</text>
<text x="225" y="118.5" font-weight="bold" font-size="10" text-anchor="middle" fill="#cc3f6c">HTML</text>
<text x="225" y="130.5" font-size="9" text-anchor="middle" fill="#cc3f6c">9.5%</text>
<rect x="255" y="102.98389527162566" width="30" height="3.516104728374351" fill="#ff69b4" rx="3" ry="3" />
<text x="270" y="98.98389527162566" font-size="9" text-anchor="middle" fill="#cc3f6c">05:15</text>
<text x="270" y="118.5" font-weight="bold" font-size="10" text-anchor="middle" fill="#cc3f6c">JSON</text>
<text x="270" y="130.5" font-size="9" text-anchor="middle" fill="#cc3f6c">1.9%</text>
<rect x="300" y="104.62329201492201" width="30" height="1.876707985077982" fill="#ff69b4" rx="3" ry="3" />
<text x="315" y="100.62329201492201" font-size="9" text-anchor="middle" fill="#cc3f6c">02:48</text>
<text x="315" y="118.5" font-weight="bold" font-size="10" text-anchor="middle" fill="#cc3f6c">Markdown</text>
<text x="315" y="130.5" font-size="9" text-anchor="middle" fill="#cc3f6c">1.0%</text>
<rect x="345" y="105.36383841384273" width="30" height="1.1361615861572747" fill="#ff69b4" rx="3" ry="3" />
<text x="360" y="101.36383841384273" font-size="9" text-anchor="middle" fill="#cc3f6c">01:42</text>
<text x="360" y="118.5" font-weight="bold" font-size="10" text-anchor="middle" fill="#cc3f6c">Bash</text>
<text x="360" y="130.5" font-size="9" text-anchor="middle" fill="#cc3f6c">0.6%</text>
      <text x="200" y="156.5" font-size="12" text-anchor="middle" fill="#cc3f6c"><tspan font-weight="bold">Total:</tspan> 275 hrs 17 mins</text>
    </g>
</svg>