
<svg width="408" height="328.5" xmlns="http://www.w3.org/2000/svg" style="font-family:Comic Sans MS,sans-serif;">
  <rect
    x="1.5"
    y="1.5"
    width="405"
    height="325.5"
    fill="#fff9c4"
    stroke="#f4cd00"
    stroke-width="3"
    rx="10"
    ry="10"
  />
  <g transform="translate(20,12.5) scale(0.075)" style="color:#cfa700"><path fill="currentColor" d="M128 0C57.308 0 0 57.308 0 128c0 70.693 57.308 128 128 128 70.693 0 128-57.307 128-128C256 57.308 198.693 0 128 0m0 33.805c51.939 0 94.195 42.256 94.195 94.195 0 51.94-42.256 94.195-94.195 94.195-51.939 0-94.195-42.255-94.195-94.195 0-51.939 42.256-94.195 94.195-94.195m-12.5 121.838h-.113a6.342 6.342 0 0 1-4.953-2.528L81.56 114.732a6.34 6.34 0 0 1 10.131-7.62l23.993 31.893 6.863-8.478a6.34 6.34 0 0 1 4.926-2.35h.008a6.331 6.331 0 0 1 4.93 2.364l6.59 8.187 37.692-48.594a6.338 6.338 0 0 1 10.015 7.77L144.1 152.837a6.338 6.338 0 0 1-4.95 2.453h-.057a6.335 6.335 0 0 1-4.938-2.364l-6.697-8.319-7.033 8.686a6.336 6.336 0 0 1-4.926 2.35"/></g><text x="45" y="28" fill="#7c6f00" font-size="16" font-family="Comic Sans MS">📃 Sticky Stats WakaTime Stats</text>
  <g transform="translate(0, 40) scale(1, 1)">
      <text x="200" y="22.5" font-size="12" text-anchor="middle" fill="#5a4e00" font-weight="bold">I mostly code in Python</text>
      <text x="67" y="55.5" font-size="10" text-anchor="end" fill="#5a4e00">Python</text>
<rect x="75" y="46.5" width="250" height="12" fill="#ffb900" rx="2" ry="2" />
<text x="331" y="55.5" font-size="9" fill="#5a4e00">89:47    |    33.1%</text>
<text x="67" y="79.5" font-size="10" text-anchor="end" fill="#5a4e00">TypeScript</text>
<rect x="75" y="70.5" width="182.28606752146516" height="12" fill="#ffb900" rx="2" ry="2" />
<text x="263.28606752146516" y="79.5" font-size="9" fill="#5a4e00">65:28    |    24.1%</text>
<text x="67" y="103.5" font-size="10" text-anchor="end" fill="#5a4e00">CSS</text>
<rect x="75" y="94.5" width="112.74945426858314" height="12" fill="#ffb900" rx="2" ry="2" />
<text x="193.74945426858312" y="103.5" font-size="9" fill="#5a4e00">40:29    |    14.9%</text>
<text x="67" y="127.5" font-size="10" text-anchor="end" fill="#5a4e00">JavaScript</text>
<rect x="75" y="118.5" width="111.13347584225612" height="12" fill="#ffb900" rx="2" ry="2" />
<text x="192.13347584225613" y="127.5" font-size="9" fill="#5a4e00">39:54    |    14.7%</text>
<text x="67" y="151.5" font-size="10" text-anchor="end" fill="#5a4e00">HTML</text>
<rect x="75" y="142.5" width="71.97482471986967" height="12" fill="#ffb900" rx="2" ry="2" />
<text x="152.97482471986967" y="151.5" font-size="9" fill="#5a4e00">25:51    |    9.5%</text>
<text x="67" y="175.5" font-size="10" text-anchor="end" fill="#5a4e00">JSON</text>
<rect x="75" y="166.5" width="14.650436368226462" height="12" fill="#ffb900" rx="2" ry="2" />
<text x="95.65043636822647" y="175.5" font-size="9" fill="#5a4e00">05:15    |    1.9%</text>
<text x="67" y="199.5" font-size="10" text-anchor="end" fill="#5a4e00">Markdown</text>
<rect x="75" y="190.5" width="7.819616604491592" height="12" fill="#ffb900" rx="2" ry="2" />
<text x="88.81961660449159" y="199.5" font-size="9" fill="#5a4e00">02:48    |    1.0%</text>
<text x="67" y="223.5" font-size="10" text-anchor="end" fill="#5a4e00">Bash</text>
<rect x="75" y="214.5" width="4.734006608988645" height="12" fill="#ffb900" rx="2" ry="2" />
<text x="85.73400660898865" y="223.5" font-size="9" fill="#5a4e00">01:42    |    0.6%</text>
      <text x="200" y="258.5" font-size="12" text-anchor="middle" fill="#5a4e00"><tspan font-weight="bold">Total:</tspan> 275 hrs 17 mins</text>
    </g>
</svg>