
<svg width="408" height="487.831137654309" xmlns="http://www.w3.org/2000/svg" style="font-family:Georgia,sans-serif;">
  <rect
    x="1"
    y="1"
    width="406"
    height="485.831137654309"
    fill="#fffaf4"
    stroke="#6e4b3a"
    stroke-width="2"
    rx="8"
    ry="8"
  />
  <g transform="translate(20,12.5) scale(0.075)" style="color:#3e2b1f"><path fill="currentColor" d="M128 0C57.308 0 0 57.308 0 128c0 70.693 57.308 128 128 128 70.693 0 128-57.307 128-128C256 57.308 198.693 0 128 0m0 33.805c51.939 0 94.195 42.256 94.195 94.195 0 51.94-42.256 94.195-94.195 94.195-51.939 0-94.195-42.255-94.195-94.195 0-51.939 42.256-94.195 94.195-94.195m-12.5 121.838h-.113a6.342 6.342 0 0 1-4.953-2.528L81.56 114.732a6.34 6.34 0 0 1 10.131-7.62l23.993 31.893 6.863-8.478a6.34 6.34 0 0 1 4.926-2.35h.008a6.331 6.331 0 0 1 4.93 2.364l6.59 8.187 37.692-48.594a6.338 6.338 0 0 1 10.015 7.77L144.1 152.837a6.338 6.338 0 0 1-4.95 2.453h-.057a6.335 6.335 0 0 1-4.938-2.364l-6.697-8.319-7.033 8.686a6.336 6.336 0 0 1-4.926 2.35"/></g><text x="45" y="28" fill="#6e4b3a" font-size="16" font-family="Georgia">🥞 Stacy's Pancake Languages WakaTime Stats</text>
  <g transform="translate(0, 40) scale(1, 1)">
      <text x="200" y="22.5" font-size="14" text-anchor="middle" fill="#4b3621" font-weight="bold">My Top Languages</text>
      <g transform="translate(5.533081117668814, 0)">
<circle cx="145.07070778717207" cy="162.24179327327576" r="59.58627235175599" fill="#be9770" fill-opacity="0.85" />
<circle cx="260.5687171623188" cy="162.24179327327576" r="50.880685166927435" fill="#c59d68" fill-opacity="0.85" />
<circle cx="210.5567142374933" cy="241.24916607558225" r="40.01597814714847" fill="#bd9468" fill-opacity="0.85" />
<circle cx="210.53379119988955" cy="83.58640260323108" r="39.72817925956426" fill="#bba36b" fill-opacity="0.85" />
<circle cx="136.3506294497231" cy="69.18093175717492" r="31.971758285548635" fill="#ccae77" fill-opacity="0.85" />
<circle cx="152.7625879478508" cy="237.77150106632797" r="14.424524086289859" fill="#cd9782" fill-opacity="0.85" />
<circle cx="261.77022740296354" cy="98.94498690212225" r="10.538260819285787" fill="#c29d72" fill-opacity="0.85" />
<circle cx="258.5965381675883" cy="223.18049851120557" r="8.199561789369275" fill="#c79681" fill-opacity="0.85" />
</g>

              <circle cx="44.5" cy="317.831137654309" r="6" fill="#be9770" />
              <text x="56.5" y="320.831137654309" font-size="10" font-weight="bold" fill="#4b3621">
                Python:
              </text>
              <text x="126.5" y="320.831137654309" font-size="10" fill="#4b3621">
                89:47 (33.1%)
              </text>
            

              <circle cx="224.5" cy="317.831137654309" r="6" fill="#c59d68" />
              <text x="236.5" y="320.831137654309" font-size="10" font-weight="bold" fill="#4b3621">
                TypeScript:
              </text>
              <text x="306.5" y="320.831137654309" font-size="10" fill="#4b3621">
                65:28 (24.1%)
              </text>
            

              <circle cx="44.5" cy="337.831137654309" r="6" fill="#bd9468" />
              <text x="56.5" y="340.831137654309" font-size="10" font-weight="bold" fill="#4b3621">
                CSS:
              </text>
              <text x="126.5" y="340.831137654309" font-size="10" fill="#4b3621">
                40:29 (14.9%)
              </text>
            

              <circle cx="224.5" cy="337.831137654309" r="6" fill="#bba36b" />
              <text x="236.5" y="340.831137654309" font-size="10" font-weight="bold" fill="#4b3621">
                JavaScript:
              </text>
              <text x="306.5" y="340.831137654309" font-size="10" fill="#4b3621">
                39:54 (14.7%)
              </text>
            

              <circle cx="44.5" cy="357.831137654309" r="6" fill="#ccae77" />
              <text x="56.5" y="360.831137654309" font-size="10" font-weight="bold" fill="#4b3621">
                HTML:
              </text>
              <text x="126.5" y="360.831137654309" font-size="10" fill="#4b3621">
                25:51 (9.5%)
              </text>
            

              <circle cx="224.5" cy="357.831137654309" r="6" fill="#cd9782" />
              <text x="236.5" y="360.831137654309" font-size="10" font-weight="bold" fill="#4b3621">
                JSON:
              </text>
              <text x="306.5" y="360.831137654309" font-size="10" fill="#4b3621">
                05:15 (1.9%)
              </text>
            

              <circle cx="44.5" cy="377.831137654309" r="6" fill="#c29d72" />
              <text x="56.5" y="380.831137654309" font-size="10" font-weight="bold" fill="#4b3621">
                Markdown:
              </text>
              <text x="126.5" y="380.831137654309" font-size="10" fill="#4b3621">
                02:48 (1.0%)
              </text>
            

              <circle cx="224.5" cy="377.831137654309" r="6" fill="#c79681" />
              <text x="236.5" y="380.831137654309" font-size="10" font-weight="bold" fill="#4b3621">
                Bash:
              </text>
              <text x="306.5" y="380.831137654309" font-size="10" fill="#4b3621">
                01:42 (0.6%)
              </text>
            
      <text x="200" y="417.831137654309" font-size="12" text-anchor="middle" fill="#4b3621"><tspan font-weight="bold">Total:</tspan> 275 hrs 17 mins</text>
    </g>
</svg>