
<svg width="408" height="472.5" xmlns="http://www.w3.org/2000/svg" style="font-family:Noto Sans JP,sans-serif;">
  <rect
    x="1"
    y="1"
    width="406"
    height="470.5"
    fill="#fffdf9"
    stroke="#111111"
    stroke-width="2"
    rx="0"
    ry="0"
  />
  <g transform="translate(20,12.5) scale(0.075)" style="color:#111111"><path fill="currentColor" d="M128 0C57.308 0 0 57.308 0 128c0 70.693 57.308 128 128 128 70.693 0 128-57.307 128-128C256 57.308 198.693 0 128 0m0 33.805c51.939 0 94.195 42.256 94.195 94.195 0 51.94-42.256 94.195-94.195 94.195-51.939 0-94.195-42.255-94.195-94.195 0-51.939 42.256-94.195 94.195-94.195m-12.5 121.838h-.113a6.342 6.342 0 0 1-4.953-2.528L81.56 114.732a6.34 6.34 0 0 1 10.131-7.62l23.993 31.893 6.863-8.478a6.34 6.34 0 0 1 4.926-2.35h.008a6.331 6.331 0 0 1 4.93 2.364l6.59 8.187 37.692-48.594a6.338 6.338 0 0 1 10.015 7.77L144.1 152.837a6.338 6.338 0 0 1-4.95 2.453h-.057a6.335 6.335 0 0 1-4.938-2.364l-6.697-8.319-7.033 8.686a6.336 6.336 0 0 1-4.926 2.35"/></g><text x="45" y="28" fill="#0f0f0f" font-size="16" font-family="Noto Sans JP">👽 Otaku Code WakaTime Stats</text>
  <g transform="translate(0, 40) scale(1, 1)">
      <text x="200" y="22.5" font-size="12" text-anchor="middle" fill="#3c3c3c" font-weight="bold">I mostly code in Python</text>
      <path d="M 204 133.6428571428571 L 219.15228816828318 139.9191404031454 L 225.42857142857144 155.07142857142856 L 219.15228816828318 170.2237167397117 L 204 176.5 L 188.84771183171685 170.22371673971173 L 182.57142857142856 155.07142857142856 L 188.84771183171682 139.9191404031454 Z" fill="none" stroke="#878581" stroke-dasharray="2,2" stroke-width="0.5"/>
<path d="M 204 112.2142857142857 L 234.30457633656633 124.76685223486223 L 246.85714285714286 155.07142857142856 L 234.30457633656633 185.37600490799488 L 204 197.92857142857142 L 173.69542366343367 185.37600490799488 L 161.14285714285714 155.07142857142856 L 173.69542366343367 124.76685223486223 Z" fill="none" stroke="#878581" stroke-dasharray="2,2" stroke-width="0.5"/>
<path d="M 204 90.78571428571426 L 249.45686450484948 109.61456406657908 L 268.2857142857143 155.07142857142856 L 249.45686450484948 200.52829307627803 L 204 219.35714285714283 L 158.54313549515052 200.52829307627803 L 139.71428571428572 155.07142857142856 L 158.5431354951505 109.61456406657908 Z" fill="none" stroke="#878581" stroke-dasharray="2,2" stroke-width="0.5"/>
<path d="M 204 69.35714285714283 L 264.60915267313266 94.4622758982959 L 289.7142857142857 155.07142857142856 L 264.60915267313266 215.6805812445612 L 204 240.78571428571428 L 143.39084732686734 215.6805812445612 L 118.28571428571428 155.07142857142856 L 143.39084732686734 94.4622758982959 Z" fill="none" stroke="#878581" stroke-dasharray="2,2" stroke-width="0.5"/>
<line x1="204" y1="155.07142857142856" x2="204" y2="69.35714285714283" stroke="#878581" stroke-width="0.5"/>
<line x1="204" y1="155.07142857142856" x2="264.60915267313266" y2="94.4622758982959" stroke="#878581" stroke-width="0.5"/>
<line x1="204" y1="155.07142857142856" x2="289.7142857142857" y2="155.07142857142856" stroke="#878581" stroke-width="0.5"/>
<line x1="204" y1="155.07142857142856" x2="264.60915267313266" y2="215.6805812445612" stroke="#878581" stroke-width="0.5"/>
<line x1="204" y1="155.07142857142856" x2="204" y2="240.78571428571428" stroke="#878581" stroke-width="0.5"/>
<line x1="204" y1="155.07142857142856" x2="143.39084732686734" y2="215.6805812445612" stroke="#878581" stroke-width="0.5"/>
<line x1="204" y1="155.07142857142856" x2="118.28571428571428" y2="155.07142857142856" stroke="#878581" stroke-width="0.5"/>
<line x1="204" y1="155.07142857142856" x2="143.39084732686734" y2="94.4622758982959" stroke="#878581" stroke-width="0.5"/>
<polygon points="204,69.35714285714283 248.1928163863738,110.87861218505478 242.6569557492285,155.07142857142856 230.9428232176768,182.01425178910534 204,179.74851133252673 200.4481978617206,158.62323070970797 201.31898859274574,155.07142857142856 202.85230348272074,153.9237320541493" fill="#1a1a1a" fill-opacity="0.2" stroke="#1a1a1a" stroke-width="2"/>
<text x="204" y="49.35714285714283" font-size="10" text-anchor="middle" alignment-baseline="middle" fill="#3c3c3c">Python</text>
<text x="278.7512882968636" y="80.32014027456496" font-size="10" text-anchor="middle" alignment-baseline="middle" fill="#3c3c3c">TypeS…</text>
<text x="309.7142857142857" y="155.07142857142856" font-size="10" text-anchor="middle" alignment-baseline="middle" fill="#3c3c3c">CSS</text>
<text x="278.7512882968636" y="229.82271686829216" font-size="10" text-anchor="middle" alignment-baseline="middle" fill="#3c3c3c">JavaS…</text>
<text x="204" y="260.7857142857143" font-size="10" text-anchor="middle" alignment-baseline="middle" fill="#3c3c3c">HTML</text>
<text x="129.2487117031364" y="229.82271686829216" font-size="10" text-anchor="middle" alignment-baseline="middle" fill="#3c3c3c">JSON</text>
<text x="98.28571428571428" y="155.07142857142856" font-size="10" text-anchor="middle" alignment-baseline="middle" fill="#3c3c3c">Markd…</text>
<text x="129.2487117031364" y="80.32014027456496" font-size="10" text-anchor="middle" alignment-baseline="middle" fill="#3c3c3c">Bash</text>

            <text x="37.5" y="296.5" font-size="10" font-weight="bold" fill="#3c3c3c">
              Python:
            </text>
            <rect x="107.5" y="286.5" width="73" height="14" fill="#000000" fill-opacity="0.2" />
            <text x="144" y="297.5" font-size="9" text-anchor="middle" fill="#3c3c3c">
              89:47 (33.1%)
            </text>
          

            <text x="227.5" y="296.5" font-size="10" font-weight="bold" fill="#3c3c3c">
              TypeScript:
            </text>
            <rect x="297.5" y="286.5" width="73" height="14" fill="#000000" fill-opacity="0.2" />
            <text x="334" y="297.5" font-size="9" text-anchor="middle" fill="#3c3c3c">
              65:28 (24.1%)
            </text>
          

            <text x="37.5" y="320.5" font-size="10" font-weight="bold" fill="#3c3c3c">
              CSS:
            </text>
            <rect x="107.5" y="310.5" width="73" height="14" fill="#000000" fill-opacity="0.2" />
            <text x="144" y="321.5" font-size="9" text-anchor="middle" fill="#3c3c3c">
              40:29 (14.9%)
            </text>
          

            <text x="227.5" y="320.5" font-size="10" font-weight="bold" fill="#3c3c3c">
              JavaScript:
            </text>
            <rect x="297.5" y="310.5" width="73" height="14" fill="#000000" fill-opacity="0.2" />
            <text x="334" y="321.5" font-size="9" text-anchor="middle" fill="#3c3c3c">
              39:54 (14.7%)
            </text>
          

            <text x="37.5" y="344.5" font-size="10" font-weight="bold" fill="#3c3c3c">
              HTML:
            </text>
            <rect x="107.5" y="334.5" width="73" height="14" fill="#060606" fill-opacity="0.2" />
            <text x="144" y="345.5" font-size="9" text-anchor="middle" fill="#3c3c3c">
              25:51 (9.5%)
            </text>
          

            <text x="227.5" y="344.5" font-size="10" font-weight="bold" fill="#3c3c3c">
              JSON:
            </text>
            <rect x="297.5" y="334.5" width="73" height="14" fill="#0f0f0f" fill-opacity="0.2" />
            <text x="334" y="345.5" font-size="9" text-anchor="middle" fill="#3c3c3c">
              05:15 (1.9%)
            </text>
          

            <text x="37.5" y="368.5" font-size="10" font-weight="bold" fill="#3c3c3c">
              Markdown:
            </text>
            <rect x="107.5" y="358.5" width="73" height="14" fill="#101010" fill-opacity="0.2" />
            <text x="144" y="369.5" font-size="9" text-anchor="middle" fill="#3c3c3c">
              02:48 (1.0%)
            </text>
          

            <text x="227.5" y="368.5" font-size="10" font-weight="bold" fill="#3c3c3c">
              Bash:
            </text>
            <rect x="297.5" y="358.5" width="73" height="14" fill="#101010" fill-opacity="0.2" />
            <text x="334" y="369.5" font-size="9" text-anchor="middle" fill="#3c3c3c">
              01:42 (0.6%)
            </text>
          
      <text x="200" y="402.5" font-size="12" text-anchor="middle" fill="#3c3c3c"><tspan font-weight="bold">Total:</tspan> 275 hrs 17 mins</text>
    </g>
</svg>