
<svg width="448" height="472.5" xmlns="http://www.w3.org/2000/svg" style="font-family:Playfair Display,sans-serif;">
  <rect
    x="1"
    y="1"
    width="446"
    height="470.5"
    fill="#2A0E14"
    stroke="#B3133B"
    stroke-width="2"
    rx="6"
    ry="6"
  />
  <g transform="translate(20,12.5) scale(0.075)" style="color:#B3133B"><path fill="currentColor" d="M128 0C57.308 0 0 57.308 0 128c0 70.693 57.308 128 128 128 70.693 0 128-57.307 128-128C256 57.308 198.693 0 128 0m0 33.805c51.939 0 94.195 42.256 94.195 94.195 0 51.94-42.256 94.195-94.195 94.195-51.939 0-94.195-42.255-94.195-94.195 0-51.939 42.256-94.195 94.195-94.195m-12.5 121.838h-.113a6.342 6.342 0 0 1-4.953-2.528L81.56 114.732a6.34 6.34 0 0 1 10.131-7.62l23.993 31.893 6.863-8.478a6.34 6.34 0 0 1 4.926-2.35h.008a6.331 6.331 0 0 1 4.93 2.364l6.59 8.187 37.692-48.594a6.338 6.338 0 0 1 10.015 7.77L144.1 152.837a6.338 6.338 0 0 1-4.95 2.453h-.057a6.335 6.335 0 0 1-4.938-2.364l-6.697-8.319-7.033 8.686a6.336 6.336 0 0 1-4.926 2.35"/></g><text x="45" y="28" fill="#FF4D6D" font-size="16" font-family="Playfair Display">❤️ Lisa's WakaTime Stats</text>
  <g transform="translate(0, 40) scale(1, 1)">
      <text x="220" y="22.5" font-size="12" text-anchor="middle" fill="#EAD3D7" font-weight="bold">I mostly code for nutriverse_v2</text>
      <path d="M 224 133.6428571428571 L 239.15228816828318 139.9191404031454 L 245.42857142857144 155.07142857142856 L 239.15228816828318 170.2237167397117 L 224 176.5 L 208.84771183171685 170.22371673971173 L 202.57142857142856 155.07142857142856 L 208.84771183171682 139.9191404031454 Z" fill="none" stroke="#000000" stroke-dasharray="2,2" stroke-width="0.5"/>
<path d="M 224 112.2142857142857 L 254.30457633656633 124.76685223486223 L 266.8571428571429 155.07142857142856 L 254.30457633656633 185.37600490799488 L 224 197.92857142857142 L 193.69542366343367 185.37600490799488 L 181.14285714285714 155.07142857142856 L 193.69542366343367 124.76685223486223 Z" fill="none" stroke="#000000" stroke-dasharray="2,2" stroke-width="0.5"/>
<path d="M 224 90.78571428571426 L 269.4568645048495 109.61456406657908 L 288.2857142857143 155.07142857142856 L 269.4568645048495 200.52829307627803 L 224 219.35714285714283 L 178.54313549515052 200.52829307627803 L 159.71428571428572 155.07142857142856 L 178.5431354951505 109.61456406657908 Z" fill="none" stroke="#000000" stroke-dasharray="2,2" stroke-width="0.5"/>
<path d="M 224 69.35714285714283 L 284.60915267313266 94.4622758982959 L 309.7142857142857 155.07142857142856 L 284.60915267313266 215.6805812445612 L 224 240.78571428571428 L 163.39084732686734 215.6805812445612 L 138.28571428571428 155.07142857142856 L 163.39084732686734 94.4622758982959 Z" fill="none" stroke="#000000" stroke-dasharray="2,2" stroke-width="0.5"/>
<line x1="224" y1="155.07142857142856" x2="224" y2="69.35714285714283" stroke="#000000" stroke-width="0.5"/>
<line x1="224" y1="155.07142857142856" x2="284.60915267313266" y2="94.4622758982959" stroke="#000000" stroke-width="0.5"/>
<line x1="224" y1="155.07142857142856" x2="309.7142857142857" y2="155.07142857142856" stroke="#000000" stroke-width="0.5"/>
<line x1="224" y1="155.07142857142856" x2="284.60915267313266" y2="215.6805812445612" stroke="#000000" stroke-width="0.5"/>
<line x1="224" y1="155.07142857142856" x2="224" y2="240.78571428571428" stroke="#000000" stroke-width="0.5"/>
<line x1="224" y1="155.07142857142856" x2="163.39084732686734" y2="215.6805812445612" stroke="#000000" stroke-width="0.5"/>
<line x1="224" y1="155.07142857142856" x2="138.28571428571428" y2="155.07142857142856" stroke="#000000" stroke-width="0.5"/>
<line x1="224" y1="155.07142857142856" x2="163.39084732686734" y2="94.4622758982959" stroke="#000000" stroke-width="0.5"/>
<polygon points="224,69.35714285714283 277.5416290074011,101.52979956402744 268.04657869945095,155.07142857142856 242.96419414408697,174.03562271551553 224,172.31866820938302 213.85844470747827,165.2129838639503 211.15683351201295,155.07142857142856 217.86480513034286,148.9362337017714" fill="#990F26" fill-opacity="0.2" stroke="#990F26" stroke-width="2"/>
<text x="224" y="49.35714285714283" font-size="10" text-anchor="middle" alignment-baseline="middle" fill="#EAD3D7">nutri…</text>
<text x="298.7512882968636" y="80.32014027456496" font-size="10" text-anchor="middle" alignment-baseline="middle" fill="#EAD3D7">Portf…</text>
<text x="329.7142857142857" y="155.07142857142856" font-size="10" text-anchor="middle" alignment-baseline="middle" fill="#EAD3D7">wakat…</text>
<text x="298.7512882968636" y="229.82271686829216" font-size="10" text-anchor="middle" alignment-baseline="middle" fill="#EAD3D7">Unkno…</text>
<text x="224" y="260.7857142857143" font-size="10" text-anchor="middle" alignment-baseline="middle" fill="#EAD3D7">final…</text>
<text x="149.2487117031364" y="229.82271686829216" font-size="10" text-anchor="middle" alignment-baseline="middle" fill="#EAD3D7">MLPAn…</text>
<text x="118.28571428571428" y="155.07142857142856" font-size="10" text-anchor="middle" alignment-baseline="middle" fill="#EAD3D7">machi…</text>
<text x="149.2487117031364" y="80.32014027456496" font-size="10" text-anchor="middle" alignment-baseline="middle" fill="#EAD3D7">machi…</text>

            <text x="15" y="296.5" font-size="10" font-weight="bold" fill="#EAD3D7">
              nutriverse_v2:
            </text>
            <rect x="140" y="286.5" width="73" height="14" fill="#350000" fill-opacity="0.2" />
            <text x="176.5" y="297.5" font-size="9" text-anchor="middle" fill="#EAD3D7">
              77:10 (30.0%)
            </text>
          

            <text x="235" y="296.5" font-size="10" font-weight="bold" fill="#EAD3D7">
              Portfolio:
            </text>
            <rect x="360" y="286.5" width="73" height="14" fill="#470000" fill-opacity="0.2" />
            <text x="396.5" y="297.5" font-size="9" text-anchor="middle" fill="#EAD3D7">
              68:10 (26.5%)
            </text>
          

            <text x="15" y="320.5" font-size="10" font-weight="bold" fill="#EAD3D7">
              wakatimeReadmeStats:
            </text>
            <rect x="140" y="310.5" width="73" height="14" fill="#740001" fill-opacity="0.2" />
            <text x="176.5" y="321.5" font-size="9" text-anchor="middle" fill="#EAD3D7">
              39:39 (15.4%)
            </text>
          

            <text x="235" y="320.5" font-size="10" font-weight="bold" fill="#EAD3D7">
              Unknown Project:
            </text>
            <rect x="360" y="310.5" width="73" height="14" fill="#840011" fill-opacity="0.2" />
            <text x="396.5" y="321.5" font-size="9" text-anchor="middle" fill="#EAD3D7">
              24:08 (9.4%)
            </text>
          

            <text x="15" y="344.5" font-size="10" font-weight="bold" fill="#EAD3D7">
              finalProject:
            </text>
            <rect x="140" y="334.5" width="73" height="14" fill="#8a0017" fill-opacity="0.2" />
            <text x="176.5" y="345.5" font-size="9" text-anchor="middle" fill="#EAD3D7">
              15:31 (6.0%)
            </text>
          

            <text x="235" y="344.5" font-size="10" font-weight="bold" fill="#EAD3D7">
              MLPAndWordVectors:
            </text>
            <rect x="360" y="334.5" width="73" height="14" fill="#8b0118" fill-opacity="0.2" />
            <text x="396.5" y="345.5" font-size="9" text-anchor="middle" fill="#EAD3D7">
              12:54 (5.0%)
            </text>
          

            <text x="15" y="368.5" font-size="10" font-weight="bold" fill="#EAD3D7">
              machineTranslation:
            </text>
            <rect x="140" y="358.5" width="73" height="14" fill="#8c0219" fill-opacity="0.2" />
            <text x="176.5" y="369.5" font-size="9" text-anchor="middle" fill="#EAD3D7">
              11:33 (4.5%)
            </text>
          

            <text x="235" y="368.5" font-size="10" font-weight="bold" fill="#EAD3D7">
              machineLearningProj…:
            </text>
            <rect x="360" y="358.5" width="73" height="14" fill="#8e041b" fill-opacity="0.2" />
            <text x="396.5" y="369.5" font-size="9" text-anchor="middle" fill="#EAD3D7">
              07:48 (3.0%)
            </text>
          
      <text x="220" y="402.5" font-size="12" text-anchor="middle" fill="#EAD3D7"><tspan font-weight="bold">Total:</tspan> 273 hrs 40 mins</text>
    </g>
</svg>