
<svg width="433" height="258.5" xmlns="http://www.w3.org/2000/svg" style="font-family:Georgia,sans-serif;">
  <rect
    x="1"
    y="1"
    width="431"
    height="256.5"
    fill="#fdf6e3"
    stroke="#deb887"
    stroke-width="2"
    rx="8"
    ry="8"
  />
  <g transform="translate(20,12.5) scale(0.075)" style="color:#c29b7d"><path fill="currentColor" d="M128 0C57.308 0 0 57.308 0 128c0 70.693 57.308 128 128 128 70.693 0 128-57.307 128-128C256 57.308 198.693 0 128 0m0 33.805c51.939 0 94.195 42.256 94.195 94.195 0 51.94-42.256 94.195-94.195 94.195-51.939 0-94.195-42.255-94.195-94.195 0-51.939 42.256-94.195 94.195-94.195m-12.5 121.838h-.113a6.342 6.342 0 0 1-4.953-2.528L81.56 114.732a6.34 6.34 0 0 1 10.131-7.62l23.993 31.893 6.863-8.478a6.34 6.34 0 0 1 4.926-2.35h.008a6.331 6.331 0 0 1 4.93 2.364l6.59 8.187 37.692-48.594a6.338 6.338 0 0 1 10.015 7.77L144.1 152.837a6.338 6.338 0 0 1-4.95 2.453h-.057a6.335 6.335 0 0 1-4.938-2.364l-6.697-8.319-7.033 8.686a6.336 6.336 0 0 1-4.926 2.35"/></g><text x="45" y="28" fill="#8c6d62" font-size="16" font-family="Georgia">LoFi Vibes WakaTime Stats</text>
  <g transform="translate(0, 40) scale(1, 1)">
      <text x="212.5" y="22.5" font-size="12" text-anchor="middle" fill="#7a5c4f" font-weight="bold">This week, I mostly wrote JavaScript</text>
      <line x1="85" y1="106.5" x2="356" y2="106.5" stroke="#ccc" stroke-width="0.5" stroke-dasharray="2,2"/>
<line x1="85" y1="91.5" x2="356" y2="91.5" stroke="#ccc" stroke-width="0.5" stroke-dasharray="2,2"/>
<line x1="85" y1="76.5" x2="356" y2="76.5" stroke="#ccc" stroke-width="0.5" stroke-dasharray="2,2"/>
<line x1="85" y1="61.5" x2="356" y2="61.5" stroke="#ccc" stroke-width="0.5" stroke-dasharray="2,2"/>
<line x1="85" y1="46.5" x2="356" y2="46.5" stroke="#ccc" stroke-width="0.5" stroke-dasharray="2,2"/>
<text x="62" y="109.5" font-size="9" text-anchor="end" fill="#7a5c4f">00:00</text>
<text x="62" y="94.5" font-size="9" text-anchor="end" fill="#7a5c4f">01:33</text>
<text x="62" y="79.5" font-size="9" text-anchor="end" fill="#7a5c4f">03:06</text>
<text x="62" y="64.5" font-size="9" text-anchor="end" fill="#7a5c4f">04:39</text>
<text x="62" y="49.5" font-size="9" text-anchor="end" fill="#7a5c4f">06:12</text>
<text x="25" y="76.5" font-size="10" fill-opacity="1" text-anchor="middle" transform="rotate(-90, 25, 76.5)" fill="#7a5c4f">Time</text>

          <path d="M 85,83.84692103886917 C 92.5,87.62243419905764 115,102.72448683981153 130,106.5 C 145,106.5 160,106.5 175,106.5 C 190,106.5 205,106.5 220,106.5 C 235,104.79252222868479 250,104.0558392605171 265,96.25513337210876 C 280,88.45442748370041 295,60.58257951160209 310,59.69576466954989 C 325,58.808949827497685 347.5,85.72783104475458 355,90.93424431979552
          L 355 106.5 L 310 106.5 L 265 106.5 L 220 106.5 L 175 106.5 L 130 106.5 L 85 106.5
          Z" fill="#000d23" fill-opacity="0.25" />
          <path d="M 85,83.84692103886917 C 92.5,87.62243419905764 115,102.72448683981153 130,106.5 C 145,106.5 160,106.5 175,106.5 C 190,106.5 205,106.5 220,106.5 C 235,104.79252222868479 250,104.0558392605171 265,96.25513337210876 C 280,88.45442748370041 295,60.58257951160209 310,59.69576466954989 C 325,58.808949827497685 347.5,85.72783104475458 355,90.93424431979552" fill="none" stroke="#000d23" stroke-width="1.5" />
        

          <path d="M 85,106.5 C 92.5,97.26641527686066 115,51.790716856448604 130,51.0984916611639 C 145,50.40626646587919 160,95.24151822962045 175,102.34664882829176 C 190,106.5 205,96.5809697870381 220,93.72927525319176 C 235,90.87758071934542 250,83.10802750074564 265,85.23648162521367 C 280,87.3649357496817 295,102.95608027086894 310,106.5 C 325,106.5 347.5,106.5 355,106.5
          L 355 106.5 L 310 106.5 L 265 106.5 L 220 106.5 L 175 106.5 L 130 106.5 L 85 106.5
          Z" fill="#00435b" fill-opacity="0.25" />
          <path d="M 85,106.5 C 92.5,97.26641527686066 115,51.790716856448604 130,51.0984916611639 C 145,50.40626646587919 160,95.24151822962045 175,102.34664882829176 C 190,106.5 205,96.5809697870381 220,93.72927525319176 C 235,90.87758071934542 250,83.10802750074564 265,85.23648162521367 C 280,87.3649357496817 295,102.95608027086894 310,106.5 C 325,106.5 347.5,106.5 355,106.5" fill="none" stroke="#00435b" stroke-width="1.5" />
        

          <path d="M 85,106.5 C 92.5,105.9542781221646 115,104.04203625644509 130,103.2256687329876 C 145,102.40930120953011 160,102.82073905345743 175,101.60179485925511 C 190,100.38285066505279 205,95.09563604431622 220,95.91200356777371 C 235,96.7283710912312 250,104.73533392796229 265,106.5 C 280,106.5 295,106.5 310,106.5 C 325,106.5 347.5,106.5 355,106.5
          L 355 106.5 L 310 106.5 L 265 106.5 L 220 106.5 L 175 106.5 L 130 106.5 L 85 106.5
          Z" fill="#604356" fill-opacity="0.25" />
          <path d="M 85,106.5 C 92.5,105.9542781221646 115,104.04203625644509 130,103.2256687329876 C 145,102.40930120953011 160,102.82073905345743 175,101.60179485925511 C 190,100.38285066505279 205,95.09563604431622 220,95.91200356777371 C 235,96.7283710912312 250,104.73533392796229 265,106.5 C 280,106.5 295,106.5 310,106.5 C 325,106.5 347.5,106.5 355,106.5" fill="none" stroke="#604356" stroke-width="1.5" />
        

          <path d="M 85,106.5 C 92.5,106.25 115,105 130,105 C 145,105 160,106.5 175,106.5 C 190,106.5 205,105 220,105 C 235,105 250,106.25 265,106.5 C 280,106.5 295,106.5 310,106.5 C 325,106.5 347.5,106.5 355,106.5
          L 355 106.5 L 310 106.5 L 265 106.5 L 220 106.5 L 175 106.5 L 130 106.5 L 85 106.5
          Z" fill="#005100" fill-opacity="0.25" />
          <path d="M 85,106.5 C 92.5,106.25 115,105 130,105 C 145,105 160,106.5 175,106.5 C 190,106.5 205,105 220,105 C 235,105 250,106.25 265,106.5 C 280,106.5 295,106.5 310,106.5 C 325,106.5 347.5,106.5 355,106.5" fill="none" stroke="#005100" stroke-width="1.5" />
        

          <path d="M 85,106.5 C 92.5,106.25 115,105 130,105 C 145,105 160,106.5 175,106.5 C 190,106.5 205,105 220,105 C 235,105 250,106.25 265,106.5 C 280,106.5 295,106.5 310,106.5 C 325,106.5 347.5,106.5 355,106.5
          L 355 106.5 L 310 106.5 L 265 106.5 L 220 106.5 L 175 106.5 L 130 106.5 L 85 106.5
          Z" fill="#530034" fill-opacity="0.25" />
          <path d="M 85,106.5 C 92.5,106.25 115,105 130,105 C 145,105 160,106.5 175,106.5 C 190,106.5 205,105 220,105 C 235,105 250,106.25 265,106.5 C 280,106.5 295,106.5 310,106.5 C 325,106.5 347.5,106.5 355,106.5" fill="none" stroke="#530034" stroke-width="1.5" />
        

          <path d="M 85,106.5 C 92.5,106.5 115,106.5 130,106.5 C 145,106.5 160,106.5 175,106.5 C 190,106.25 205,105 220,105 C 235,105 250,106.25 265,106.5 C 280,106.5 295,106.5 310,106.5 C 325,106.5 347.5,106.5 355,106.5
          L 355 106.5 L 310 106.5 L 265 106.5 L 220 106.5 L 175 106.5 L 130 106.5 L 85 106.5
          Z" fill="#330000" fill-opacity="0.25" />
          <path d="M 85,106.5 C 92.5,106.5 115,106.5 130,106.5 C 145,106.5 160,106.5 175,106.5 C 190,106.25 205,105 220,105 C 235,105 250,106.25 265,106.5 C 280,106.5 295,106.5 310,106.5 C 325,106.5 347.5,106.5 355,106.5" fill="none" stroke="#330000" stroke-width="1.5" />
        
<text x="85" y="118.5" font-weight="bold" font-size="10" text-anchor="middle" fill="#7a5c4f" fill-opacity="0.7">Sun</text>
<text x="130" y="118.5" font-weight="bold" font-size="10" text-anchor="middle" fill="#7a5c4f" fill-opacity="0.7">Mon</text>
<text x="175" y="118.5" font-weight="bold" font-size="10" text-anchor="middle" fill="#7a5c4f" fill-opacity="0.7">Tue</text>
<text x="220" y="118.5" font-weight="bold" font-size="10" text-anchor="middle" fill="#7a5c4f" fill-opacity="0.7">Wed</text>
<text x="265" y="118.5" font-weight="bold" font-size="10" text-anchor="middle" fill="#7a5c4f" fill-opacity="0.7">Thu</text>
<text x="310" y="118.5" font-weight="bold" font-size="10" text-anchor="middle" fill="#7a5c4f" fill-opacity="0.7">Fri</text>
<text x="355" y="118.5" font-weight="bold" font-size="10" text-anchor="middle" fill="#7a5c4f" fill-opacity="0.7">Sat</text>

            <circle cx="109.5" cy="138.5" r="5" fill="#000d23" />
            <text x="121.5" y="142.5" font-size="10" fill="#7a5c4f">JavaScript</text>
          

            <circle cx="206.5" cy="138.5" r="5" fill="#00435b" />
            <text x="218.5" y="142.5" font-size="10" fill="#7a5c4f">TypeScript</text>
          

            <circle cx="303.5" cy="138.5" r="5" fill="#604356" />
            <text x="315.5" y="142.5" font-size="10" fill="#7a5c4f">JSON</text>
          

            <circle cx="109.5" cy="158.5" r="5" fill="#005100" />
            <text x="121.5" y="162.5" font-size="10" fill="#7a5c4f">Python</text>
          

            <circle cx="206.5" cy="158.5" r="5" fill="#530034" />
            <text x="218.5" y="162.5" font-size="10" fill="#7a5c4f">Git Config</text>
          

            <circle cx="303.5" cy="158.5" r="5" fill="#330000" />
            <text x="315.5" y="162.5" font-size="10" fill="#7a5c4f">Other</text>
          
      <text x="212.5" y="188.5" font-size="12" text-anchor="middle" fill="#7a5c4f"><tspan font-weight="bold">Total:</tspan> 21 hrs 51 mins</text>
    </g>
</svg>