
<svg width="433" height="252.5" xmlns="http://www.w3.org/2000/svg" style="font-family:Georgia,sans-serif;">
  <rect
    x="1"
    y="1"
    width="431"
    height="250.5"
    fill="#f5f0e6"
    stroke="#cabfa3"
    stroke-width="2"
    rx="8"
    ry="8"
  />
  <g transform="translate(20,12.5) scale(0.075)" style="color:#4e342e"><path fill="currentColor" d="M128 0C57.308 0 0 57.308 0 128c0 70.693 57.308 128 128 128 70.693 0 128-57.307 128-128C256 57.308 198.693 0 128 0m0 33.805c51.939 0 94.195 42.256 94.195 94.195 0 51.94-42.256 94.195-94.195 94.195-51.939 0-94.195-42.255-94.195-94.195 0-51.939 42.256-94.195 94.195-94.195m-12.5 121.838h-.113a6.342 6.342 0 0 1-4.953-2.528L81.56 114.732a6.34 6.34 0 0 1 10.131-7.62l23.993 31.893 6.863-8.478a6.34 6.34 0 0 1 4.926-2.35h.008a6.331 6.331 0 0 1 4.93 2.364l6.59 8.187 37.692-48.594a6.338 6.338 0 0 1 10.015 7.77L144.1 152.837a6.338 6.338 0 0 1-4.95 2.453h-.057a6.335 6.335 0 0 1-4.938-2.364l-6.697-8.319-7.033 8.686a6.336 6.336 0 0 1-4.926 2.35"/></g><text x="45" y="28" fill="#5e503f" font-size="16" font-family="Georgia">Scroll of Code WakaTime Stats</text>
  <g transform="translate(0, 40) scale(1, 1)">
      <text x="212.5" y="22.5" font-size="12" text-anchor="middle" fill="#6d4c41" font-weight="bold">This week, I mostly worked on nutriverse_v2</text>
      <line x1="70" y1="106.5" x2="371" y2="106.5" stroke="#ccc" stroke-width="0.5" stroke-dasharray="2,2"/>
<line x1="70" y1="91.5" x2="371" y2="91.5" stroke="#ccc" stroke-width="0.5" stroke-dasharray="2,2"/>
<line x1="70" y1="76.5" x2="371" y2="76.5" stroke="#ccc" stroke-width="0.5" stroke-dasharray="2,2"/>
<line x1="70" y1="61.5" x2="371" y2="61.5" stroke="#ccc" stroke-width="0.5" stroke-dasharray="2,2"/>
<line x1="70" y1="46.5" x2="371" y2="46.5" stroke="#ccc" stroke-width="0.5" stroke-dasharray="2,2"/>
<text x="62" y="109.5" font-size="9" text-anchor="end" fill="#6d4c41">00:00</text>
<text x="62" y="94.5" font-size="9" text-anchor="end" fill="#6d4c41">01:33</text>
<text x="62" y="79.5" font-size="9" text-anchor="end" fill="#6d4c41">03:06</text>
<text x="62" y="64.5" font-size="9" text-anchor="end" fill="#6d4c41">04:39</text>
<text x="62" y="49.5" font-size="9" text-anchor="end" fill="#6d4c41">06:12</text>
<text x="25" y="76.5" font-size="10" fill-opacity="1" text-anchor="middle" transform="rotate(-90, 25, 76.5)" fill="#6d4c41">Time</text>
<text x="85" y="79.84692103886917" font-size="9" text-anchor="middle" fill="#6d4c41">02:20</text>

                <rect x="70" y="83.84692103886917" width="30" height="22.653078961130824" fill="#bfffff" rx="2" ry="2">
                <title>wakatimeReadmeStats: 02:20</title>
                </rect>
            
<text x="85" y="118.5" font-weight="bold" font-size="10" text-anchor="middle" fill="#6d4c41">Sun</text>
<text x="85" y="130.5" font-size="9" text-anchor="middle" fill="#6d4c41">10.7%</text>
<text x="130" y="42.5" font-size="9" text-anchor="middle" fill="#6d4c41">06:12</text>

                <rect x="115" y="46.5" width="30" height="60" fill="#ebb2a4" rx="2" ry="2">
                <title>nutriverse_v2: 06:12</title>
                </rect>
            
<text x="130" y="118.5" font-weight="bold" font-size="10" text-anchor="middle" fill="#6d4c41">Mon</text>
<text x="130" y="130.5" font-size="9" text-anchor="middle" fill="#6d4c41">28.4%</text>
<text x="175" y="93.44844368754687" font-size="9" text-anchor="middle" fill="#6d4c41">56m</text>

                <rect x="160" y="97.44844368754687" width="30" height="9.051556312453137" fill="#ebb2a4" rx="2" ry="2">
                <title>nutriverse_v2: 56m</title>
                </rect>
            
<text x="175" y="118.5" font-weight="bold" font-size="10" text-anchor="middle" fill="#6d4c41">Tue</text>
<text x="175" y="130.5" font-size="9" text-anchor="middle" fill="#6d4c41">4.3%</text>
<text x="220" y="76.96926265197227" font-size="9" text-anchor="middle" fill="#6d4c41">02:38</text>

                <rect x="205" y="80.96926265197227" width="30" height="25.53073734802773" fill="#ebb2a4" rx="2" ry="2">
                <title>nutriverse_v2: 02:38</title>
                </rect>
            
<text x="220" y="118.5" font-weight="bold" font-size="10" text-anchor="middle" fill="#6d4c41">Wed</text>
<text x="220" y="130.5" font-size="9" text-anchor="middle" fill="#6d4c41">12.1%</text>
<text x="265" y="70.99161499732243" font-size="9" text-anchor="middle" fill="#6d4c41">03:15</text>

                <rect x="250" y="96.25513337210876" width="30" height="10.244866627891248" fill="#bfffff" rx="2" ry="2">
                <title>wakatimeReadmeStats: 01:03</title>
                </rect>
            

                <rect x="250" y="74.99161499732243" width="30" height="21.26351837478633" fill="#ebb2a4" rx="2" ry="2">
                <title>nutriverse_v2: 02:12</title>
                </rect>
            
<text x="265" y="118.5" font-weight="bold" font-size="10" text-anchor="middle" fill="#6d4c41">Thu</text>
<text x="265" y="130.5" font-size="9" text-anchor="middle" fill="#6d4c41">14.9%</text>
<text x="310" y="55.69576466954989" font-size="9" text-anchor="middle" fill="#6d4c41">04:50</text>

                <rect x="295" y="59.69576466954989" width="30" height="46.80423533045011" fill="#bfffff" rx="2" ry="2">
                <title>wakatimeReadmeStats: 04:50</title>
                </rect>
            
<text x="310" y="118.5" font-weight="bold" font-size="10" text-anchor="middle" fill="#6d4c41">Fri</text>
<text x="310" y="130.5" font-size="9" text-anchor="middle" fill="#6d4c41">22.2%</text>
<text x="355" y="86.93424431979552" font-size="9" text-anchor="middle" fill="#6d4c41">01:36</text>

                <rect x="340" y="90.93424431979552" width="30" height="15.565755680204475" fill="#bfffff" rx="2" ry="2">
                <title>wakatimeReadmeStats: 01:36</title>
                </rect>
            
<text x="355" y="118.5" font-weight="bold" font-size="10" text-anchor="middle" fill="#6d4c41">Sat</text>
<text x="355" y="130.5" font-size="9" text-anchor="middle" fill="#6d4c41">7.4%</text>

            <circle cx="99.5" cy="150.5" r="5" fill="#bfffff" />
            <text x="111.5" y="154.5" font-size="10" fill="#6d4c41">wakatimeReadmeStats</text>
            

            <circle cx="255" cy="150.5" r="5" fill="#ebb2a4" />
            <text x="267" y="154.5" font-size="10" fill="#6d4c41">nutriverse_v2</text>
            
      <text x="212.5" y="182.5" font-size="12" text-anchor="middle" fill="#6d4c41"><tspan font-weight="bold">Total:</tspan> 21 hrs 51 mins</text>
    </g>
</svg>