
<svg width="363" height="226.5" xmlns="http://www.w3.org/2000/svg" style="font-family:Courier New,sans-serif;">
  <rect
    x="1"
    y="1"
    width="361"
    height="224.5"
    fill="#fff8e7"
    stroke="#8b5a2b"
    stroke-width="2"
    rx="6"
    ry="6"
  />
  <g transform="translate(20,12.5) scale(0.075)" style="color:#8b5a2b"><path fill="currentColor" d="M128 0C57.308 0 0 57.308 0 128c0 70.693 57.308 128 128 128 70.693 0 128-57.307 128-128C256 57.308 198.693 0 128 0m0 33.805c51.939 0 94.195 42.256 94.195 94.195 0 51.94-42.256 94.195-94.195 94.195-51.939 0-94.195-42.255-94.195-94.195 0-51.939 42.256-94.195 94.195-94.195m-12.5 121.838h-.113a6.342 6.342 0 0 1-4.953-2.528L81.56 114.732a6.34 6.34 0 0 1 10.131-7.62l23.993 31.893 6.863-8.478a6.34 6.34 0 0 1 4.926-2.35h.008a6.331 6.331 0 0 1 4.93 2.364l6.59 8.187 37.692-48.594a6.338 6.338 0 0 1 10.015 7.77L144.1 152.837a6.338 6.338 0 0 1-4.95 2.453h-.057a6.335 6.335 0 0 1-4.938-2.364l-6.697-8.319-7.033 8.686a6.336 6.336 0 0 1-4.926 2.35"/></g><text x="45" y="28" fill="#6b4226" font-size="16" font-family="Courier New">WakaTime Stats</text>
  <g transform="translate(0, 40) scale(1, 1)">
      <text x="177.5" y="22.5" font-size="12" text-anchor="middle" fill="#4b3621" font-weight="bold">This week, my most productive day was Monday</text>
      <path d="M 45 83.84692103886917 L 90 46.5 L 135 97.44844368754687 L 180 80.96926265197227 L 225 74.99161499732242 L 270 59.69576466954989 L 315 92.8152180201233" fill="none" stroke="#a88d32" stroke-width="2" />
<circle cx="45" cy="83.84692103886917" r="2.5" fill="#a88d32" />
<circle cx="90" cy="46.5" r="2.5" fill="#a88d32" />
<circle cx="135" cy="97.44844368754687" r="2.5" fill="#a88d32" />
<circle cx="180" cy="80.96926265197227" r="2.5" fill="#a88d32" />
<circle cx="225" cy="74.99161499732242" r="2.5" fill="#a88d32" />
<circle cx="270" cy="59.69576466954989" r="2.5" fill="#a88d32" />
<circle cx="315" cy="92.8152180201233" r="2.5" fill="#a88d32" />
<text x="45" y="77.84692103886917" font-size="9" text-anchor="middle" fill="#4b3621" fill-opacity="0.8">02:20</text>
<text x="45" y="118.5" font-weight="bold" font-size="10" text-anchor="middle" fill="#4b3621" fill-opacity="0.7">Sun</text>
<text x="45" y="130.5" font-size="9" text-anchor="middle" fill="#4b3621" fill-opacity="0.6">10.8%</text>
<text x="90" y="40.5" font-size="9" text-anchor="middle" fill="#4b3621" fill-opacity="0.8">06:12</text>
<text x="90" y="118.5" font-weight="bold" font-size="10" text-anchor="middle" fill="#4b3621" fill-opacity="0.7">Mon</text>
<text x="90" y="130.5" font-size="9" text-anchor="middle" fill="#4b3621" fill-opacity="0.6">28.7%</text>
<text x="135" y="91.44844368754687" font-size="9" text-anchor="middle" fill="#4b3621" fill-opacity="0.8">56m</text>
<text x="135" y="118.5" font-weight="bold" font-size="10" text-anchor="middle" fill="#4b3621" fill-opacity="0.7">Tue</text>
<text x="135" y="130.5" font-size="9" text-anchor="middle" fill="#4b3621" fill-opacity="0.6">4.3%</text>
<text x="180" y="74.96926265197227" font-size="9" text-anchor="middle" fill="#4b3621" fill-opacity="0.8">02:38</text>
<text x="180" y="118.5" font-weight="bold" font-size="10" text-anchor="middle" fill="#4b3621" fill-opacity="0.7">Wed</text>
<text x="180" y="130.5" font-size="9" text-anchor="middle" fill="#4b3621" fill-opacity="0.6">12.2%</text>
<text x="225" y="68.99161499732242" font-size="9" text-anchor="middle" fill="#4b3621" fill-opacity="0.8">03:15</text>
<text x="225" y="118.5" font-weight="bold" font-size="10" text-anchor="middle" fill="#4b3621" fill-opacity="0.7">Thu</text>
<text x="225" y="130.5" font-size="9" text-anchor="middle" fill="#4b3621" fill-opacity="0.6">15.1%</text>
<text x="270" y="53.69576466954989" font-size="9" text-anchor="middle" fill="#4b3621" fill-opacity="0.8">04:50</text>
<text x="270" y="118.5" font-weight="bold" font-size="10" text-anchor="middle" fill="#4b3621" fill-opacity="0.7">Fri</text>
<text x="270" y="130.5" font-size="9" text-anchor="middle" fill="#4b3621" fill-opacity="0.6">22.4%</text>
<text x="315" y="86.8152180201233" font-size="9" text-anchor="middle" fill="#4b3621" fill-opacity="0.8">01:25</text>
<text x="315" y="118.5" font-weight="bold" font-size="10" text-anchor="middle" fill="#4b3621" fill-opacity="0.7">Sat</text>
<text x="315" y="130.5" font-size="9" text-anchor="middle" fill="#4b3621" fill-opacity="0.6">6.5%</text>
      <text x="177.5" y="156.5" font-size="12" text-anchor="middle" fill="#4b3621"><tspan font-weight="bold">Total:</tspan> 21 hrs 39 mins</text>
    </g>
</svg>