
<svg width="363" height="226.5" xmlns="http://www.w3.org/2000/svg" style="font-family:Trebuchet MS,sans-serif;">
  <rect
    x="1.5"
    y="1.5"
    width="360"
    height="223.5"
    fill="#002e4d"
    stroke="#0099cc"
    stroke-width="3"
    rx="16"
    ry="16"
  />
  <g transform="translate(20,12.5) scale(0.075)" style="color:#ffae42"><path fill="currentColor" d="M128 0C57.308 0 0 57.308 0 128c0 70.693 57.308 128 128 128 70.693 0 128-57.307 128-128C256 57.308 198.693 0 128 0m0 33.805c51.939 0 94.195 42.256 94.195 94.195 0 51.94-42.256 94.195-94.195 94.195-51.939 0-94.195-42.255-94.195-94.195 0-51.939 42.256-94.195 94.195-94.195m-12.5 121.838h-.113a6.342 6.342 0 0 1-4.953-2.528L81.56 114.732a6.34 6.34 0 0 1 10.131-7.62l23.993 31.893 6.863-8.478a6.34 6.34 0 0 1 4.926-2.35h.008a6.331 6.331 0 0 1 4.93 2.364l6.59 8.187 37.692-48.594a6.338 6.338 0 0 1 10.015 7.77L144.1 152.837a6.338 6.338 0 0 1-4.95 2.453h-.057a6.335 6.335 0 0 1-4.938-2.364l-6.697-8.319-7.033 8.686a6.336 6.336 0 0 1-4.926 2.35"/></g><text x="45" y="28" fill="#ffd700" font-size="16" font-family="Trebuchet MS">🐡  Fish Coding WakaTime Stats</text>
  <g transform="translate(0, 40) scale(1, 1)">
      <text x="177.5" y="22.5" font-size="14" text-anchor="middle" fill="#cceeff" font-weight="bold">I'm most productive on Mondays</text>
      <rect x="30" y="46.5" width="30" height="60" fill="#ff6f00" rx="3" ry="3" />
<text x="45" y="42.5" font-size="9" text-anchor="middle" fill="#cceeff">44m</text>
<text x="45" y="118.5" font-weight="bold" font-size="10" text-anchor="middle" fill="#cceeff">Mon</text>
<text x="45" y="130.5" font-size="9" text-anchor="middle" fill="#cceeff">17.1%</text>
<rect x="75" y="48.28411190797478" width="30" height="58.21588809202522" fill="#e15100" rx="3" ry="3" />
<text x="90" y="44.28411190797478" font-size="9" text-anchor="middle" fill="#cceeff">43m</text>
<text x="90" y="118.5" font-weight="bold" font-size="10" text-anchor="middle" fill="#cceeff">Tue</text>
<text x="90" y="130.5" font-size="9" text-anchor="middle" fill="#cceeff">16.5%</text>
<rect x="120" y="47.432825087332844" width="30" height="59.067174912667156" fill="#d74700" rx="3" ry="3" />
<text x="135" y="43.432825087332844" font-size="9" text-anchor="middle" fill="#cceeff">43m</text>
<text x="135" y="118.5" font-weight="bold" font-size="10" text-anchor="middle" fill="#cceeff">Wed</text>
<text x="135" y="130.5" font-size="9" text-anchor="middle" fill="#cceeff">16.8%</text>
<rect x="165" y="53.27709885704335" width="30" height="53.22290114295665" fill="#cd3d00" rx="3" ry="3" />
<text x="180" y="49.27709885704335" font-size="9" text-anchor="middle" fill="#cceeff">39m</text>
<text x="180" y="118.5" font-weight="bold" font-size="10" text-anchor="middle" fill="#cceeff">Thu</text>
<text x="180" y="130.5" font-size="9" text-anchor="middle" fill="#cceeff">15.1%</text>
<rect x="210" y="66.10083155918824" width="30" height="40.39916844081177" fill="#c33300" rx="3" ry="3" />
<text x="225" y="62.10083155918824" font-size="9" text-anchor="middle" fill="#cceeff">29m</text>
<text x="225" y="118.5" font-weight="bold" font-size="10" text-anchor="middle" fill="#cceeff">Fri</text>
<text x="225" y="130.5" font-size="9" text-anchor="middle" fill="#cceeff">11.5%</text>
<rect x="255" y="67.27485588763226" width="30" height="39.225144112367744" fill="#b92900" rx="3" ry="3" />
<text x="270" y="63.274855887632256" font-size="9" text-anchor="middle" fill="#cceeff">29m</text>
<text x="270" y="118.5" font-weight="bold" font-size="10" text-anchor="middle" fill="#cceeff">Sat</text>
<text x="270" y="130.5" font-size="9" text-anchor="middle" fill="#cceeff">11.1%</text>
<rect x="300" y="64.7540614716589" width="30" height="41.7459385283411" fill="#af1f00" rx="3" ry="3" />
<text x="315" y="60.7540614716589" font-size="9" text-anchor="middle" fill="#cceeff">30m</text>
<text x="315" y="118.5" font-weight="bold" font-size="10" text-anchor="middle" fill="#cceeff">Sun</text>
<text x="315" y="130.5" font-size="9" text-anchor="middle" fill="#cceeff">11.9%</text>
      <text x="177.5" y="156.5" font-size="12" text-anchor="middle" fill="#cceeff"><tspan font-weight="bold">Total:</tspan> 4 hrs 21 mins</text>
    </g>
</svg>