
<svg width="363" height="440.7541228608098" xmlns="http://www.w3.org/2000/svg" style="font-family:Georgia,sans-serif;">
  <rect
    x="1"
    y="1"
    width="361"
    height="438.7541228608098"
    fill="#0A0F2C"
    stroke="#1B1F44"
    stroke-width="2"
    rx="10"
    ry="10"
  />
  <g transform="translate(20,12.5) scale(0.075)" style="color:#6C91BF"><path fill="currentColor" d="M128 0C57.308 0 0 57.308 0 128c0 70.693 57.308 128 128 128 70.693 0 128-57.307 128-128C256 57.308 198.693 0 128 0m0 33.805c51.939 0 94.195 42.256 94.195 94.195 0 51.94-42.256 94.195-94.195 94.195-51.939 0-94.195-42.255-94.195-94.195 0-51.939 42.256-94.195 94.195-94.195m-12.5 121.838h-.113a6.342 6.342 0 0 1-4.953-2.528L81.56 114.732a6.34 6.34 0 0 1 10.131-7.62l23.993 31.893 6.863-8.478a6.34 6.34 0 0 1 4.926-2.35h.008a6.331 6.331 0 0 1 4.93 2.364l6.59 8.187 37.692-48.594a6.338 6.338 0 0 1 10.015 7.77L144.1 152.837a6.338 6.338 0 0 1-4.95 2.453h-.057a6.335 6.335 0 0 1-4.938-2.364l-6.697-8.319-7.033 8.686a6.336 6.336 0 0 1-4.926 2.35"/></g><text x="45" y="28" fill="#FFFFFF" font-size="16" font-family="Georgia">🌐 Coach Laura's WakaTime Stats</text>
  <g transform="translate(0, 40) scale(1, 1)">
      <text x="177.5" y="22.5" font-size="14" text-anchor="middle" fill="#A7BFE8" font-weight="bold">I'm most productive on Mondays</text>
      <g transform="translate(23.54113070542752, 0)">
<circle cx="122.16858196087964" cy="144.12178805636995" r="35.18746169558871" fill="#92def5" fill-opacity="0.85" />
<circle cx="194.21282512327036" cy="144.12178805636995" r="34.932521185236794" fill="#95c7f4" fill-opacity="0.85" />
<circle cx="158.44429896747778" cy="206.07424216473078" r="34.67988069607902" fill="#92d1ea" fill-opacity="0.85" />
<circle cx="158.43891834278526" cy="83.93468587677495" r="33.15935720933355" fill="#8dd4f7" fill-opacity="0.85" />
<circle cx="93.98801012822803" cy="83.91119870644224" r="29.36729500325025" fill="#92e0e9" fill-opacity="0.85" />
<circle cx="222.40732265558495" cy="84.72759439665506" r="28.8897008085822" fill="#96d6e8" fill-opacity="0.85" />
<circle cx="93.44253246840204" cy="203.07397662583696" r="28.46682982581189" fill="#a9d0e7" fill-opacity="0.85" />
</g>

              <circle cx="29.5" cy="270.7541228608098" r="6" fill="#92def5" />
              <text x="41.5" y="273.7541228608098" font-size="10" font-weight="bold" fill="#A7BFE8">
                Mon:
              </text>
              <text x="91.5" y="273.7541228608098" font-size="10" fill="#A7BFE8">
                44m (17.0%)
              </text>
            

              <circle cx="219.5" cy="270.7541228608098" r="6" fill="#95c7f4" />
              <text x="231.5" y="273.7541228608098" font-size="10" font-weight="bold" fill="#A7BFE8">
                Wed:
              </text>
              <text x="281.5" y="273.7541228608098" font-size="10" fill="#A7BFE8">
                43m (16.8%)
              </text>
            

              <circle cx="29.5" cy="290.7541228608098" r="6" fill="#92d1ea" />
              <text x="41.5" y="293.7541228608098" font-size="10" font-weight="bold" fill="#A7BFE8">
                Tue:
              </text>
              <text x="91.5" y="293.7541228608098" font-size="10" fill="#A7BFE8">
                43m (16.5%)
              </text>
            

              <circle cx="219.5" cy="290.7541228608098" r="6" fill="#8dd4f7" />
              <text x="231.5" y="293.7541228608098" font-size="10" font-weight="bold" fill="#A7BFE8">
                Thu:
              </text>
              <text x="281.5" y="293.7541228608098" font-size="10" fill="#A7BFE8">
                39m (15.1%)
              </text>
            

              <circle cx="29.5" cy="310.7541228608098" r="6" fill="#92e0e9" />
              <text x="41.5" y="313.7541228608098" font-size="10" font-weight="bold" fill="#A7BFE8">
                Sun:
              </text>
              <text x="91.5" y="313.7541228608098" font-size="10" fill="#A7BFE8">
                30m (11.9%)
              </text>
            

              <circle cx="219.5" cy="310.7541228608098" r="6" fill="#96d6e8" />
              <text x="231.5" y="313.7541228608098" font-size="10" font-weight="bold" fill="#A7BFE8">
                Fri:
              </text>
              <text x="281.5" y="313.7541228608098" font-size="10" fill="#A7BFE8">
                29m (11.5%)
              </text>
            

              <circle cx="29.5" cy="330.7541228608098" r="6" fill="#a9d0e7" />
              <text x="41.5" y="333.7541228608098" font-size="10" font-weight="bold" fill="#A7BFE8">
                Sat:
              </text>
              <text x="91.5" y="333.7541228608098" font-size="10" fill="#A7BFE8">
                29m (11.1%)
              </text>
            
      <text x="177.5" y="370.7541228608098" font-size="12" text-anchor="middle" fill="#A7BFE8"><tspan font-weight="bold">Total:</tspan> 4 hrs 21 mins</text>
    </g>
</svg>