
<svg width="433" height="238.5" xmlns="http://www.w3.org/2000/svg" style="font-family:Georgia,sans-serif;">
  <rect
    x="1"
    y="1"
    width="431"
    height="236.5"
    fill="#edf7e1"
    stroke="#8cbf3f"
    stroke-width="2"
    rx="10"
    ry="10"
  />
  <g transform="translate(20,12.5) scale(0.075)" style="color:#3a5f0b"><path fill="currentColor" d="M128 0C57.308 0 0 57.308 0 128c0 70.693 57.308 128 128 128 70.693 0 128-57.307 128-128C256 57.308 198.693 0 128 0m0 33.805c51.939 0 94.195 42.256 94.195 94.195 0 51.94-42.256 94.195-94.195 94.195-51.939 0-94.195-42.255-94.195-94.195 0-51.939 42.256-94.195 94.195-94.195m-12.5 121.838h-.113a6.342 6.342 0 0 1-4.953-2.528L81.56 114.732a6.34 6.34 0 0 1 10.131-7.62l23.993 31.893 6.863-8.478a6.34 6.34 0 0 1 4.926-2.35h.008a6.331 6.331 0 0 1 4.93 2.364l6.59 8.187 37.692-48.594a6.338 6.338 0 0 1 10.015 7.77L144.1 152.837a6.338 6.338 0 0 1-4.95 2.453h-.057a6.335 6.335 0 0 1-4.938-2.364l-6.697-8.319-7.033 8.686a6.336 6.336 0 0 1-4.926 2.35"/></g><text x="45" y="28" fill="#3a5f0b" font-size="16" font-family="Georgia">Meadow Projects WakaTime Stats</text>
  <g transform="translate(0, 40) scale(1, 1)">
      <text x="212.5" y="22.5" font-size="12" text-anchor="middle" fill="#5a7d28" font-weight="bold">This week, I mostly worked on nutriverse_v2</text>
      <line x1="85" y1="106.5" x2="356" y2="106.5" stroke="#ccc" stroke-width="0.5" stroke-dasharray="2,2"/>
<line x1="85" y1="91.5" x2="356" y2="91.5" stroke="#ccc" stroke-width="0.5" stroke-dasharray="2,2"/>
<line x1="85" y1="76.5" x2="356" y2="76.5" stroke="#ccc" stroke-width="0.5" stroke-dasharray="2,2"/>
<line x1="85" y1="61.5" x2="356" y2="61.5" stroke="#ccc" stroke-width="0.5" stroke-dasharray="2,2"/>
<line x1="85" y1="46.5" x2="356" y2="46.5" stroke="#ccc" stroke-width="0.5" stroke-dasharray="2,2"/>
<text x="62" y="109.5" font-size="9" text-anchor="end" fill="#5a7d28">00:00</text>
<text x="62" y="94.5" font-size="9" text-anchor="end" fill="#5a7d28">01:33</text>
<text x="62" y="79.5" font-size="9" text-anchor="end" fill="#5a7d28">03:06</text>
<text x="62" y="64.5" font-size="9" text-anchor="end" fill="#5a7d28">04:39</text>
<text x="62" y="49.5" font-size="9" text-anchor="end" fill="#5a7d28">06:12</text>
<text x="25" y="76.5" font-size="10" fill-opacity="1" text-anchor="middle" transform="rotate(-90, 25, 76.5)" fill="#5a7d28">Time</text>

            <path d="M 85,83.84692103886917 C 92.5,87.62243419905764 115,102.72448683981153 130,106.5 C 145,106.5 160,106.5 175,106.5 C 190,106.5 205,106.5 220,106.5 C 235,104.79252222868479 250,104.0558392605171 265,96.25513337210876 C 280,88.45442748370041 295,60.58257951160209 310,59.69576466954989 C 325,58.808949827497685 347.5,85.72783104475458 355,90.93424431979552
            L 355 106.5 L 310 106.5 L 265 106.5 L 220 106.5 L 175 106.5 L 130 106.5 L 85 106.5
            Z" fill="#cdc28d" fill-opacity="0.25" />
            <path d="M 85,83.84692103886917 C 92.5,87.62243419905764 115,102.72448683981153 130,106.5 C 145,106.5 160,106.5 175,106.5 C 190,106.5 205,106.5 220,106.5 C 235,104.79252222868479 250,104.0558392605171 265,96.25513337210876 C 280,88.45442748370041 295,60.58257951160209 310,59.69576466954989 C 325,58.808949827497685 347.5,85.72783104475458 355,90.93424431979552" fill="none" stroke="#cdc28d" stroke-width="1.5" />
            

            <path d="M 85,106.5 C 92.5,96.5 115,48.008592718742186 130,46.5 C 145,46.5 160,91.70356657888482 175,97.44844368754687 C 190,103.19332079620892 205,83.00458966236114 220,80.96926265197227 C 235,78.9339356415834 250,80.98135873387571 265,85.23648162521367 C 280,89.49160451655163 295,102.95608027086894 310,106.5 C 325,106.5 347.5,106.5 355,106.5
            L 355 106.5 L 310 106.5 L 265 106.5 L 220 106.5 L 175 106.5 L 130 106.5 L 85 106.5
            Z" fill="#cdec0b" fill-opacity="0.25" />
            <path d="M 85,106.5 C 92.5,96.5 115,48.008592718742186 130,46.5 C 145,46.5 160,91.70356657888482 175,97.44844368754687 C 190,103.19332079620892 205,83.00458966236114 220,80.96926265197227 C 235,78.9339356415834 250,80.98135873387571 265,85.23648162521367 C 280,89.49160451655163 295,102.95608027086894 310,106.5 C 325,106.5 347.5,106.5 355,106.5" fill="none" stroke="#cdec0b" stroke-width="1.5" />
            

                <circle cx="85" cy="83.84692103886917" r="2.2" fill="#cdc28d">
                    <title>wakatimeReadmeStats: 02:20</title>
                </circle>
                <text x="85" y="77.84692103886917" font-size="8.5" text-anchor="middle" fill="#5a7d28" fill-opacity="0.85">02:20</text><text x="85" y="68.84692103886917" font-size="8" text-anchor="middle" fill="#5a7d28" fill-opacity="0.6">10.7%</text>
                

                <circle cx="130" cy="106.5" r="2.2" fill="#cdc28d">
                    <title>wakatimeReadmeStats: 00:00</title>
                </circle>
                <text x="130" y="100.5" font-size="8.5" text-anchor="middle" fill="#5a7d28" fill-opacity="0.85">00:00</text><text x="130" y="91.5" font-size="8" text-anchor="middle" fill="#5a7d28" fill-opacity="0.6">0.0%</text>
                

                <circle cx="175" cy="106.5" r="2.2" fill="#cdc28d">
                    <title>wakatimeReadmeStats: 00:00</title>
                </circle>
                <text x="175" y="100.5" font-size="8.5" text-anchor="middle" fill="#5a7d28" fill-opacity="0.85">00:00</text><text x="175" y="91.5" font-size="8" text-anchor="middle" fill="#5a7d28" fill-opacity="0.6">0.0%</text>
                

                <circle cx="220" cy="106.5" r="2.2" fill="#cdc28d">
                    <title>wakatimeReadmeStats: 00:00</title>
                </circle>
                <text x="220" y="100.5" font-size="8.5" text-anchor="middle" fill="#5a7d28" fill-opacity="0.85">00:00</text><text x="220" y="91.5" font-size="8" text-anchor="middle" fill="#5a7d28" fill-opacity="0.6">0.0%</text>
                

                <circle cx="265" cy="96.25513337210876" r="2.2" fill="#cdc28d">
                    <title>wakatimeReadmeStats: 01:03</title>
                </circle>
                <text x="265" y="90.25513337210876" font-size="8.5" text-anchor="middle" fill="#5a7d28" fill-opacity="0.85">01:03</text><text x="265" y="81.25513337210876" font-size="8" text-anchor="middle" fill="#5a7d28" fill-opacity="0.6">4.9%</text>
                

                <circle cx="310" cy="59.69576466954989" r="2.2" fill="#cdc28d">
                    <title>wakatimeReadmeStats: 04:50</title>
                </circle>
                <text x="310" y="53.69576466954989" font-size="8.5" text-anchor="middle" fill="#5a7d28" fill-opacity="0.85">04:50</text><text x="310" y="44.69576466954989" font-size="8" text-anchor="middle" fill="#5a7d28" fill-opacity="0.6">22.2%</text>
                

                <circle cx="355" cy="90.93424431979552" r="2.2" fill="#cdc28d">
                    <title>wakatimeReadmeStats: 01:36</title>
                </circle>
                <text x="355" y="84.93424431979552" font-size="8.5" text-anchor="middle" fill="#5a7d28" fill-opacity="0.85">01:36</text><text x="355" y="75.93424431979552" font-size="8" text-anchor="middle" fill="#5a7d28" fill-opacity="0.6">7.4%</text>
                

                <circle cx="85" cy="106.5" r="2.2" fill="#cdec0b">
                    <title>nutriverse_v2: 00:00</title>
                </circle>
                <text x="85" y="100.5" font-size="8.5" text-anchor="middle" fill="#5a7d28" fill-opacity="0.85">00:00</text><text x="85" y="91.5" font-size="8" text-anchor="middle" fill="#5a7d28" fill-opacity="0.6">0.0%</text>
                

                <circle cx="130" cy="46.5" r="2.2" fill="#cdec0b">
                    <title>nutriverse_v2: 06:12</title>
                </circle>
                <text x="130" y="40.5" font-size="8.5" text-anchor="middle" fill="#5a7d28" fill-opacity="0.85">06:12</text><text x="130" y="31.5" font-size="8" text-anchor="middle" fill="#5a7d28" fill-opacity="0.6">28.4%</text>
                

                <circle cx="175" cy="97.44844368754687" r="2.2" fill="#cdec0b">
                    <title>nutriverse_v2: 56m</title>
                </circle>
                <text x="175" y="91.44844368754687" font-size="8.5" text-anchor="middle" fill="#5a7d28" fill-opacity="0.85">56m</text><text x="175" y="82.44844368754687" font-size="8" text-anchor="middle" fill="#5a7d28" fill-opacity="0.6">4.3%</text>
                

                <circle cx="220" cy="80.96926265197227" r="2.2" fill="#cdec0b">
                    <title>nutriverse_v2: 02:38</title>
                </circle>
                <text x="220" y="74.96926265197227" font-size="8.5" text-anchor="middle" fill="#5a7d28" fill-opacity="0.85">02:38</text><text x="220" y="65.96926265197227" font-size="8" text-anchor="middle" fill="#5a7d28" fill-opacity="0.6">12.1%</text>
                

                <circle cx="265" cy="85.23648162521367" r="2.2" fill="#cdec0b">
                    <title>nutriverse_v2: 02:12</title>
                </circle>
                <text x="265" y="79.23648162521367" font-size="8.5" text-anchor="middle" fill="#5a7d28" fill-opacity="0.85">02:12</text><text x="265" y="70.23648162521367" font-size="8" text-anchor="middle" fill="#5a7d28" fill-opacity="0.6">10.1%</text>
                

                <circle cx="310" cy="106.5" r="2.2" fill="#cdec0b">
                    <title>nutriverse_v2: 00:00</title>
                </circle>
                <text x="310" y="100.5" font-size="8.5" text-anchor="middle" fill="#5a7d28" fill-opacity="0.85">00:00</text><text x="310" y="91.5" font-size="8" text-anchor="middle" fill="#5a7d28" fill-opacity="0.6">0.0%</text>
                

                <circle cx="355" cy="106.5" r="2.2" fill="#cdec0b">
                    <title>nutriverse_v2: 00:00</title>
                </circle>
                <text x="355" y="100.5" font-size="8.5" text-anchor="middle" fill="#5a7d28" fill-opacity="0.85">00:00</text><text x="355" y="91.5" font-size="8" text-anchor="middle" fill="#5a7d28" fill-opacity="0.6">0.0%</text>
                
<text x="85" y="118.5" font-weight="bold" font-size="10" text-anchor="middle" fill="#5a7d28" fill-opacity="0.7">Sun</text>
<text x="130" y="118.5" font-weight="bold" font-size="10" text-anchor="middle" fill="#5a7d28" fill-opacity="0.7">Mon</text>
<text x="175" y="118.5" font-weight="bold" font-size="10" text-anchor="middle" fill="#5a7d28" fill-opacity="0.7">Tue</text>
<text x="220" y="118.5" font-weight="bold" font-size="10" text-anchor="middle" fill="#5a7d28" fill-opacity="0.7">Wed</text>
<text x="265" y="118.5" font-weight="bold" font-size="10" text-anchor="middle" fill="#5a7d28" fill-opacity="0.7">Thu</text>
<text x="310" y="118.5" font-weight="bold" font-size="10" text-anchor="middle" fill="#5a7d28" fill-opacity="0.7">Fri</text>
<text x="355" y="118.5" font-weight="bold" font-size="10" text-anchor="middle" fill="#5a7d28" fill-opacity="0.7">Sat</text>

                <circle cx="99.5" cy="138.5" r="5" fill="#cdc28d" />
                <text x="111.5" y="142.5" font-size="10" fill="#5a7d28">wakatimeReadmeStats</text>
            

                <circle cx="255" cy="138.5" r="5" fill="#cdec0b" />
                <text x="267" y="142.5" font-size="10" fill="#5a7d28">nutriverse_v2</text>
            
      <text x="212.5" y="168.5" font-size="12" text-anchor="middle" fill="#5a7d28"><tspan font-weight="bold">Total:</tspan> 21 hrs 51 mins</text>
    </g>
</svg>