
<svg width="363" height="226.5" xmlns="http://www.w3.org/2000/svg" style="font-family:Arial Black,sans-serif;">
  <rect
    x="1"
    y="1"
    width="361"
    height="224.5"
    fill="#F1F9FF"
    stroke="#ADB5BD"
    stroke-width="2"
    rx="6"
    ry="6"
  />
  <g transform="translate(20,12.5) scale(0.075)" style="color:#0077B6"><path fill="currentColor" d="M128 0C57.308 0 0 57.308 0 128c0 70.693 57.308 128 128 128 70.693 0 128-57.307 128-128C256 57.308 198.693 0 128 0m0 33.805c51.939 0 94.195 42.256 94.195 94.195 0 51.94-42.256 94.195-94.195 94.195-51.939 0-94.195-42.255-94.195-94.195 0-51.939 42.256-94.195 94.195-94.195m-12.5 121.838h-.113a6.342 6.342 0 0 1-4.953-2.528L81.56 114.732a6.34 6.34 0 0 1 10.131-7.62l23.993 31.893 6.863-8.478a6.34 6.34 0 0 1 4.926-2.35h.008a6.331 6.331 0 0 1 4.93 2.364l6.59 8.187 37.692-48.594a6.338 6.338 0 0 1 10.015 7.77L144.1 152.837a6.338 6.338 0 0 1-4.95 2.453h-.057a6.335 6.335 0 0 1-4.938-2.364l-6.697-8.319-7.033 8.686a6.336 6.336 0 0 1-4.926 2.35"/></g><text x="45" y="28" fill="#023E8A" font-size="16" font-family="Arial Black">✈️ Flight Stats WakaTime Stats</text>
  <g transform="translate(0, 40) scale(1, 1)">
      <text x="177.5" y="22.5" font-size="14" text-anchor="middle" fill="#5C677D" font-weight="bold">I'm most productive on Mondays</text>
      <path d="M 45,46.5 C 52.5,46.79735198466246 75,48.128641060085975 90,48.28411190797478 C 105,48.43958275586359 120,46.60066059582142 135,47.432825087332844 C 150,48.26498957884427 165,50.16576444506745 180,53.27709885704335 C 195,56.388433269019245 210,63.767872054090084 225,66.10083155918824 C 240,68.43379106428638 255,67.49931756888715 270,67.27485588763226 C 285,67.05039420637736 307.5,65.17419387432113 315,64.7540614716589" fill="none" stroke="#1D3557" stroke-width="2" />
<circle cx="45" cy="46.5" r="2.5" fill="#1D3557" />
<circle cx="90" cy="48.28411190797478" r="2.5" fill="#1D3557" />
<circle cx="135" cy="47.432825087332844" r="2.5" fill="#1D3557" />
<circle cx="180" cy="53.27709885704335" r="2.5" fill="#1D3557" />
<circle cx="225" cy="66.10083155918824" r="2.5" fill="#1D3557" />
<circle cx="270" cy="67.27485588763226" r="2.5" fill="#1D3557" />
<circle cx="315" cy="64.7540614716589" r="2.5" fill="#1D3557" />
<text x="45" y="40.5" font-size="9" text-anchor="middle" fill="#5C677D" fill-opacity="0.8">44m</text>
<text x="45" y="118.5" font-weight="bold" font-size="10" text-anchor="middle" fill="#5C677D" fill-opacity="0.7">Mon</text>
<text x="45" y="130.5" font-size="9" text-anchor="middle" fill="#5C677D" fill-opacity="0.6">17.1%</text>
<text x="90" y="42.28411190797478" font-size="9" text-anchor="middle" fill="#5C677D" fill-opacity="0.8">43m</text>
<text x="90" y="118.5" font-weight="bold" font-size="10" text-anchor="middle" fill="#5C677D" fill-opacity="0.7">Tue</text>
<text x="90" y="130.5" font-size="9" text-anchor="middle" fill="#5C677D" fill-opacity="0.6">16.5%</text>
<text x="135" y="41.432825087332844" font-size="9" text-anchor="middle" fill="#5C677D" fill-opacity="0.8">43m</text>
<text x="135" y="118.5" font-weight="bold" font-size="10" text-anchor="middle" fill="#5C677D" fill-opacity="0.7">Wed</text>
<text x="135" y="130.5" font-size="9" text-anchor="middle" fill="#5C677D" fill-opacity="0.6">16.8%</text>
<text x="180" y="47.27709885704335" font-size="9" text-anchor="middle" fill="#5C677D" fill-opacity="0.8">39m</text>
<text x="180" y="118.5" font-weight="bold" font-size="10" text-anchor="middle" fill="#5C677D" fill-opacity="0.7">Thu</text>
<text x="180" y="130.5" font-size="9" text-anchor="middle" fill="#5C677D" fill-opacity="0.6">15.1%</text>
<text x="225" y="60.10083155918824" font-size="9" text-anchor="middle" fill="#5C677D" fill-opacity="0.8">29m</text>
<text x="225" y="118.5" font-weight="bold" font-size="10" text-anchor="middle" fill="#5C677D" fill-opacity="0.7">Fri</text>
<text x="225" y="130.5" font-size="9" text-anchor="middle" fill="#5C677D" fill-opacity="0.6">11.5%</text>
<text x="270" y="61.274855887632256" font-size="9" text-anchor="middle" fill="#5C677D" fill-opacity="0.8">29m</text>
<text x="270" y="118.5" font-weight="bold" font-size="10" text-anchor="middle" fill="#5C677D" fill-opacity="0.7">Sat</text>
<text x="270" y="130.5" font-size="9" text-anchor="middle" fill="#5C677D" fill-opacity="0.6">11.1%</text>
<text x="315" y="58.7540614716589" font-size="9" text-anchor="middle" fill="#5C677D" fill-opacity="0.8">30m</text>
<text x="315" y="118.5" font-weight="bold" font-size="10" text-anchor="middle" fill="#5C677D" fill-opacity="0.7">Sun</text>
<text x="315" y="130.5" font-size="9" text-anchor="middle" fill="#5C677D" fill-opacity="0.6">11.9%</text>
      <text x="177.5" y="156.5" font-size="12" text-anchor="middle" fill="#5C677D"><tspan font-weight="bold">Total:</tspan> 4 hrs 21 mins</text>
    </g>
</svg>