
<svg width="363" height="455.7576668896962" xmlns="http://www.w3.org/2000/svg" style="font-family:Georgia,sans-serif;">
  <rect
    x="1"
    y="1"
    width="361"
    height="453.7576668896962"
    fill="#fffaf4"
    stroke="#6e4b3a"
    stroke-width="2"
    rx="8"
    ry="8"
  />
  <g transform="translate(20,12.5) scale(0.075)" style="color:#3e2b1f"><path fill="currentColor" d="M128 0C57.308 0 0 57.308 0 128c0 70.693 57.308 128 128 128 70.693 0 128-57.307 128-128C256 57.308 198.693 0 128 0m0 33.805c51.939 0 94.195 42.256 94.195 94.195 0 51.94-42.256 94.195-94.195 94.195-51.939 0-94.195-42.255-94.195-94.195 0-51.939 42.256-94.195 94.195-94.195m-12.5 121.838h-.113a6.342 6.342 0 0 1-4.953-2.528L81.56 114.732a6.34 6.34 0 0 1 10.131-7.62l23.993 31.893 6.863-8.478a6.34 6.34 0 0 1 4.926-2.35h.008a6.331 6.331 0 0 1 4.93 2.364l6.59 8.187 37.692-48.594a6.338 6.338 0 0 1 10.015 7.77L144.1 152.837a6.338 6.338 0 0 1-4.95 2.453h-.057a6.335 6.335 0 0 1-4.938-2.364l-6.697-8.319-7.033 8.686a6.336 6.336 0 0 1-4.926 2.35"/></g><text x="45" y="28" fill="#6e4b3a" font-size="16" font-family="Georgia">Stacy's WakaTime Stats</text>
  <g transform="translate(0, 40) scale(1, 1)">
      <text x="177.5" y="22.5" font-size="14" text-anchor="middle" fill="#4b3621" font-weight="bold">This Week's Coding Time</text>
      <g transform="translate(8.488583709990678, 0)">
<circle cx="127.93668379672623" cy="149.3623943228427" r="49.941184742105634" fill="#52402c" fill-opacity="0.85" />
<circle cx="223.91847766556674" cy="149.3623943228427" r="44.10885585983137" fill="#504124" fill-opacity="0.85" />
<circle cx="181.1015591605699" cy="219.56702488502611" r="36.19064200467011" fill="#4a3623" fill-opacity="0.85" />
<circle cx="180.88199373664676" cy="83.57003600391849" r="32.57728554190853" fill="#403538" fill-opacity="0.85" />
<circle cx="117.71378521996058" cy="67.43836208540952" r="30.68646311134077" fill="#594028" fill-opacity="0.85" />
<circle cx="119.33276490770476" cy="224.59570128710902" r="23.850756413730036" fill="#442c36" fill-opacity="0.85" />
<circle cx="234.77374214249943" cy="84.830975587074" r="19.397459082185236" fill="#463224" fill-opacity="0.85" />
</g>

              <circle cx="29.5" cy="285.7576668896962" r="6" fill="#52402c" />
              <text x="41.5" y="288.7576668896962" font-size="10" font-weight="bold" fill="#4b3621">
                Mon:
              </text>
              <text x="91.5" y="288.7576668896962" font-size="10" fill="#4b3621">
                06:12 (28.7%)
              </text>
            

              <circle cx="219.5" cy="285.7576668896962" r="6" fill="#504124" />
              <text x="231.5" y="288.7576668896962" font-size="10" font-weight="bold" fill="#4b3621">
                Fri:
              </text>
              <text x="281.5" y="288.7576668896962" font-size="10" fill="#4b3621">
                04:50 (22.4%)
              </text>
            

              <circle cx="29.5" cy="305.7576668896962" r="6" fill="#4a3623" />
              <text x="41.5" y="308.7576668896962" font-size="10" font-weight="bold" fill="#4b3621">
                Thu:
              </text>
              <text x="91.5" y="308.7576668896962" font-size="10" fill="#4b3621">
                03:15 (15.1%)
              </text>
            

              <circle cx="219.5" cy="305.7576668896962" r="6" fill="#403538" />
              <text x="231.5" y="308.7576668896962" font-size="10" font-weight="bold" fill="#4b3621">
                Wed:
              </text>
              <text x="281.5" y="308.7576668896962" font-size="10" fill="#4b3621">
                02:38 (12.2%)
              </text>
            

              <circle cx="29.5" cy="325.7576668896962" r="6" fill="#594028" />
              <text x="41.5" y="328.7576668896962" font-size="10" font-weight="bold" fill="#4b3621">
                Sun:
              </text>
              <text x="91.5" y="328.7576668896962" font-size="10" fill="#4b3621">
                02:20 (10.8%)
              </text>
            

              <circle cx="219.5" cy="325.7576668896962" r="6" fill="#442c36" />
              <text x="231.5" y="328.7576668896962" font-size="10" font-weight="bold" fill="#4b3621">
                Sat:
              </text>
              <text x="281.5" y="328.7576668896962" font-size="10" fill="#4b3621">
                01:25 (6.5%)
              </text>
            

              <circle cx="29.5" cy="345.7576668896962" r="6" fill="#463224" />
              <text x="41.5" y="348.7576668896962" font-size="10" font-weight="bold" fill="#4b3621">
                Tue:
              </text>
              <text x="91.5" y="348.7576668896962" font-size="10" fill="#4b3621">
                56m (4.3%)
              </text>
            
      <text x="177.5" y="385.7576668896962" font-size="12" text-anchor="middle" fill="#4b3621"><tspan font-weight="bold">Total:</tspan> 21 hrs 39 mins</text>
    </g>
</svg>