
<svg width="363" height="226.5" xmlns="http://www.w3.org/2000/svg" style="font-family:Comic Sans MS,sans-serif;">
  <rect
    x="1.5"
    y="1.5"
    width="360"
    height="223.5"
    fill="#ffe8f0"
    stroke="#c94c7c"
    stroke-width="3"
    rx="10"
    ry="10"
  />
  <g transform="translate(20,12.5) scale(0.075)" style="color:#c94c7c"><path fill="currentColor" d="M128 0C57.308 0 0 57.308 0 128c0 70.693 57.308 128 128 128 70.693 0 128-57.307 128-128C256 57.308 198.693 0 128 0m0 33.805c51.939 0 94.195 42.256 94.195 94.195 0 51.94-42.256 94.195-94.195 94.195-51.939 0-94.195-42.255-94.195-94.195 0-51.939 42.256-94.195 94.195-94.195m-12.5 121.838h-.113a6.342 6.342 0 0 1-4.953-2.528L81.56 114.732a6.34 6.34 0 0 1 10.131-7.62l23.993 31.893 6.863-8.478a6.34 6.34 0 0 1 4.926-2.35h.008a6.331 6.331 0 0 1 4.93 2.364l6.59 8.187 37.692-48.594a6.338 6.338 0 0 1 10.015 7.77L144.1 152.837a6.338 6.338 0 0 1-4.95 2.453h-.057a6.335 6.335 0 0 1-4.938-2.364l-6.697-8.319-7.033 8.686a6.336 6.336 0 0 1-4.926 2.35"/></g><text x="45" y="28" fill="#c94c7c" font-size="16" font-family="Comic Sans MS">WakaTime Stats</text>
  <g transform="translate(0, 40) scale(1, 1)">
      <text x="177.5" y="22.5" font-size="12" text-anchor="middle" fill="#59253a" font-weight="bold">This week, my most productive day was Monday</text>
      <rect x="30" y="83.84692103886917" width="30" height="22.653078961130824" fill="#f78fb3" rx="3" ry="3" />
<text x="45" y="79.84692103886917" font-size="9" text-anchor="middle" fill="#59253a">02:20</text>
<text x="45" y="118.5" font-weight="bold" font-size="10" text-anchor="middle" fill="#59253a">Sun</text>
<text x="45" y="130.5" font-size="9" text-anchor="middle" fill="#59253a">10.8%</text>
<rect x="75" y="46.5" width="30" height="60" fill="#f78fb3" rx="3" ry="3" />
<text x="90" y="42.5" font-size="9" text-anchor="middle" fill="#59253a">06:12</text>
<text x="90" y="118.5" font-weight="bold" font-size="10" text-anchor="middle" fill="#59253a">Mon</text>
<text x="90" y="130.5" font-size="9" text-anchor="middle" fill="#59253a">28.7%</text>
<rect x="120" y="97.44844368754687" width="30" height="9.051556312453137" fill="#f78fb3" rx="3" ry="3" />
<text x="135" y="93.44844368754687" font-size="9" text-anchor="middle" fill="#59253a">56m</text>
<text x="135" y="118.5" font-weight="bold" font-size="10" text-anchor="middle" fill="#59253a">Tue</text>
<text x="135" y="130.5" font-size="9" text-anchor="middle" fill="#59253a">4.3%</text>
<rect x="165" y="80.96926265197227" width="30" height="25.53073734802773" fill="#f78fb3" rx="3" ry="3" />
<text x="180" y="76.96926265197227" font-size="9" text-anchor="middle" fill="#59253a">02:38</text>
<text x="180" y="118.5" font-weight="bold" font-size="10" text-anchor="middle" fill="#59253a">Wed</text>
<text x="180" y="130.5" font-size="9" text-anchor="middle" fill="#59253a">12.2%</text>
<rect x="210" y="74.99161499732242" width="30" height="31.508385002677578" fill="#f78fb3" rx="3" ry="3" />
<text x="225" y="70.99161499732242" font-size="9" text-anchor="middle" fill="#59253a">03:15</text>
<text x="225" y="118.5" font-weight="bold" font-size="10" text-anchor="middle" fill="#59253a">Thu</text>
<text x="225" y="130.5" font-size="9" text-anchor="middle" fill="#59253a">15.1%</text>
<rect x="255" y="59.69576466954989" width="30" height="46.80423533045011" fill="#f78fb3" rx="3" ry="3" />
<text x="270" y="55.69576466954989" font-size="9" text-anchor="middle" fill="#59253a">04:50</text>
<text x="270" y="118.5" font-weight="bold" font-size="10" text-anchor="middle" fill="#59253a">Fri</text>
<text x="270" y="130.5" font-size="9" text-anchor="middle" fill="#59253a">22.4%</text>
<rect x="300" y="92.8152180201233" width="30" height="13.684781979876698" fill="#f78fb3" rx="3" ry="3" />
<text x="315" y="88.8152180201233" font-size="9" text-anchor="middle" fill="#59253a">01:25</text>
<text x="315" y="118.5" font-weight="bold" font-size="10" text-anchor="middle" fill="#59253a">Sat</text>
<text x="315" y="130.5" font-size="9" text-anchor="middle" fill="#59253a">6.5%</text>
      <text x="177.5" y="156.5" font-size="12" text-anchor="middle" fill="#59253a"><tspan font-weight="bold">Total:</tspan> 21 hrs 39 mins</text>
    </g>
</svg>