
<svg width="363" height="379" xmlns="http://www.w3.org/2000/svg" style="font-family:Segoe UI,sans-serif;">
  <rect
    x="1"
    y="1"
    width="361"
    height="377"
    fill="#e6e8f7"
    stroke="#5b5fc7"
    stroke-width="2"
    rx="12"
    ry="12"
  />
  <g transform="translate(20,12.5) scale(0.075)" style="color:#5b5fc7"><path fill="currentColor" d="M128 0C57.308 0 0 57.308 0 128c0 70.693 57.308 128 128 128 70.693 0 128-57.307 128-128C256 57.308 198.693 0 128 0m0 33.805c51.939 0 94.195 42.256 94.195 94.195 0 51.94-42.256 94.195-94.195 94.195-51.939 0-94.195-42.255-94.195-94.195 0-51.939 42.256-94.195 94.195-94.195m-12.5 121.838h-.113a6.342 6.342 0 0 1-4.953-2.528L81.56 114.732a6.34 6.34 0 0 1 10.131-7.62l23.993 31.893 6.863-8.478a6.34 6.34 0 0 1 4.926-2.35h.008a6.331 6.331 0 0 1 4.93 2.364l6.59 8.187 37.692-48.594a6.338 6.338 0 0 1 10.015 7.77L144.1 152.837a6.338 6.338 0 0 1-4.95 2.453h-.057a6.335 6.335 0 0 1-4.938-2.364l-6.697-8.319-7.033 8.686a6.336 6.336 0 0 1-4.926 2.35"/></g><text x="45" y="28" fill="#3c3e80" font-size="16" font-family="Segoe UI">Shadow Projects WakaTime Stats</text>
  <g transform="translate(0, 40) scale(1, 1)">
      <text x="177.5" y="22.5" font-size="12" text-anchor="middle" fill="#4e4e91" font-weight="bold">This week, I mostly worked on nutriverse_v2</text>
      <path d="M 181.5 119.77731092436973 L 198.25353176717206 127.84538659882544 L 202.39131240389622 145.97418808057648 L 190.79750869537625 160.5123580937073 L 172.20249130462375 160.5123580937073 L 160.60868759610378 145.97418808057648 L 164.74646823282794 127.84538659882544 Z" fill="none" stroke="#6e707f" stroke-dasharray="2,2" stroke-width="0.5"/>
<path d="M 181.5 98.3487394957983 L 215.00706353434413 114.48489084470972 L 223.28262480779244 150.74249380821178 L 200.0950173907525 179.81883383447342 L 162.9049826092475 179.81883383447342 L 139.71737519220756 150.74249380821178 L 147.99293646565587 114.48489084470972 Z" fill="none" stroke="#6e707f" stroke-dasharray="2,2" stroke-width="0.5"/>
<path d="M 181.5 76.92016806722687 L 231.76059530151622 101.124395090594 L 244.17393721168867 155.5107995358471 L 209.39252608612875 199.12530957523956 L 153.60747391387127 199.12530957523956 L 118.82606278831133 155.5107995358471 L 131.23940469848378 101.12439509059402 Z" fill="none" stroke="#6e707f" stroke-dasharray="2,2" stroke-width="0.5"/>
<path d="M 181.5 55.49159663865544 L 248.51412706868828 87.76389933647829 L 265.0652496155849 160.2791052634824 L 218.690034781505 218.43178531600566 L 144.30996521849502 218.43178531600566 L 97.93475038441511 160.2791052634824 L 114.48587293131172 87.76389933647829 Z" fill="none" stroke="#6e707f" stroke-dasharray="2,2" stroke-width="0.5"/>
<line x1="181.5" y1="141.20588235294116" x2="181.5" y2="55.49159663865544" stroke="#6e707f" stroke-width="0.5"/>
<line x1="181.5" y1="141.20588235294116" x2="248.51412706868828" y2="87.76389933647829" stroke="#6e707f" stroke-width="0.5"/>
<line x1="181.5" y1="141.20588235294116" x2="265.0652496155849" y2="160.2791052634824" stroke="#6e707f" stroke-width="0.5"/>
<line x1="181.5" y1="141.20588235294116" x2="218.690034781505" y2="218.43178531600566" stroke="#6e707f" stroke-width="0.5"/>
<line x1="181.5" y1="141.20588235294116" x2="144.30996521849502" y2="218.43178531600566" stroke="#6e707f" stroke-width="0.5"/>
<line x1="181.5" y1="141.20588235294116" x2="97.93475038441511" y2="160.2791052634824" stroke="#6e707f" stroke-width="0.5"/>
<line x1="181.5" y1="141.20588235294116" x2="114.48587293131172" y2="87.76389933647829" stroke="#6e707f" stroke-width="0.5"/>

            <polygon points="181.5,108.84434097989713 181.5,141.20588235294116 181.5,141.20588235294116 181.5,141.20588235294116 175.1498842296141,154.39203362085894 116.31320652573932,156.08434257985957 164.11457451544368,127.34146817460953" fill="#ab6270" fill-opacity="0.2" stroke="#ab6270" stroke-width="2" />
            <circle cx="181.5" cy="108.84434097989713" r="2.2" fill="#ab6270"><title>wakatimeReadmeStats: 02:20</title></circle>
<circle cx="181.5" cy="141.20588235294116" r="2.2" fill="#ab6270"><title>wakatimeReadmeStats: 00:00</title></circle>
<circle cx="181.5" cy="141.20588235294116" r="2.2" fill="#ab6270"><title>wakatimeReadmeStats: 00:00</title></circle>
<circle cx="181.5" cy="141.20588235294116" r="2.2" fill="#ab6270"><title>wakatimeReadmeStats: 00:00</title></circle>
<circle cx="175.1498842296141" cy="154.39203362085894" r="2.2" fill="#ab6270"><title>wakatimeReadmeStats: 01:03</title></circle>
<circle cx="116.31320652573932" cy="156.08434257985957" r="2.2" fill="#ab6270"><title>wakatimeReadmeStats: 04:50</title></circle>
<circle cx="164.11457451544368" cy="127.34146817460953" r="2.2" fill="#ab6270"><title>wakatimeReadmeStats: 01:36</title></circle>
            

            <polygon points="181.5,141.20588235294116 248.51412706868828,87.76389933647829 194.1065927109945,144.08325487352008 197.32481683284365,174.0664531031791 168.32015020107545,168.57412246401762 181.5,141.20588235294116 181.5,141.20588235294116" fill="#b121a1" fill-opacity="0.2" stroke="#b121a1" stroke-width="2" />
            <circle cx="181.5" cy="141.20588235294116" r="2.2" fill="#b121a1"><title>nutriverse_v2: 00:00</title></circle>
<circle cx="248.51412706868828" cy="87.76389933647829" r="2.2" fill="#b121a1"><title>nutriverse_v2: 06:12</title></circle>
<circle cx="194.1065927109945" cy="144.08325487352008" r="2.2" fill="#b121a1"><title>nutriverse_v2: 56m</title></circle>
<circle cx="197.32481683284365" cy="174.0664531031791" r="2.2" fill="#b121a1"><title>nutriverse_v2: 02:38</title></circle>
<circle cx="168.32015020107545" cy="168.57412246401762" r="2.2" fill="#b121a1"><title>nutriverse_v2: 02:12</title></circle>
<circle cx="181.5" cy="141.20588235294116" r="2.2" fill="#b121a1"><title>nutriverse_v2: 00:00</title></circle>
<circle cx="181.5" cy="141.20588235294116" r="2.2" fill="#b121a1"><title>nutriverse_v2: 00:00</title></circle>
            
<text x="181.5" y="43.49159663865544" font-size="10" text-anchor="middle" alignment-baseline="middle" fill="#4e4e91">Sun</text>
<text x="257.8961048583046" y="80.28202171417348" font-size="10" text-anchor="middle" alignment-baseline="middle" fill="#4e4e91">Mon</text>
<text x="276.76438456176675" y="162.94935647095818" font-size="10" text-anchor="middle" alignment-baseline="middle" fill="#4e4e91">Tue</text>
<text x="223.8966396509157" y="229.24341173083468" font-size="10" text-anchor="middle" alignment-baseline="middle" fill="#4e4e91">Wed</text>
<text x="139.1033603490843" y="229.24341173083468" font-size="10" text-anchor="middle" alignment-baseline="middle" fill="#4e4e91">Thu</text>
<text x="86.23561543823322" y="162.94935647095818" font-size="10" text-anchor="middle" alignment-baseline="middle" fill="#4e4e91">Fri</text>
<text x="105.10389514169536" y="80.2820217141735" font-size="10" text-anchor="middle" alignment-baseline="middle" fill="#4e4e91">Sat</text>
<circle cx="181.5" cy="141.20588235294116" r="0.8" fill="#4e4e91"/>
<circle cx="202.39131240389622" cy="145.97418808057648" r="0.8" fill="#4e4e91"/>

                <text x="200.39131240389622" y="126.90275950914791" font-size="8" text-anchor="start"
                      transform="rotate(77, 200.39131240389622, 126.90275950914791)"
                      fill="#4e4e91">01:33</text>
              
<circle cx="223.28262480779244" cy="150.74249380821178" r="0.8" fill="#4e4e91"/>

                <text x="221.28262480779244" y="130.59963666535464" font-size="8" text-anchor="start"
                      transform="rotate(77, 221.28262480779244, 130.59963666535464)"
                      fill="#4e4e91">03:06</text>
              
<circle cx="244.17393721168867" cy="155.5107995358471" r="0.8" fill="#4e4e91"/>

                <text x="242.17393721168867" y="134.29651382156138" font-size="8" text-anchor="start"
                      transform="rotate(77, 242.17393721168867, 134.29651382156138)"
                      fill="#4e4e91">04:39</text>
              
<circle cx="265.0652496155849" cy="160.2791052634824" r="0.8" fill="#4e4e91"/>

                <text x="263.0652496155849" y="137.99339097776812" font-size="8" text-anchor="start"
                      transform="rotate(77, 263.0652496155849, 137.99339097776812)"
                      fill="#4e4e91">06:12</text>
              

            <text x="92.25" y="264" font-size="10" font-weight="bold" fill="#4e4e91">wakatimeReadmeStats</text>
            <rect x="212.25" y="254" width="60" height="14" rx="4" ry="4" fill="#ab6270" fill-opacity="0.18" />
            <text x="242.25" y="265" font-size="9" text-anchor="middle" fill="##010101">09:51 (45.1%)</text>
          

            <text x="92.25" y="284" font-size="10" font-weight="bold" fill="#4e4e91">nutriverse_v2</text>
            <rect x="212.25" y="274" width="60" height="14" rx="4" ry="4" fill="#b121a1" fill-opacity="0.19" />
            <text x="242.25" y="285" font-size="9" text-anchor="middle" fill="##010101">11:59 (54.9%)</text>
          
      <text x="177.5" y="309" font-size="12" text-anchor="middle" fill="#4e4e91"><tspan font-weight="bold">Total:</tspan> 21 hrs 51 mins</text>
    </g>
</svg>