
<svg width="433" height="272.5" xmlns="http://www.w3.org/2000/svg" style="font-family:Verdana,sans-serif;">
  <rect
    x="1"
    y="1"
    width="431"
    height="270.5"
    fill="#fffbea"
    stroke="#f4c542"
    stroke-width="2"
    rx="10"
    ry="10"
  />
  <g transform="translate(20,12.5) scale(0.075)" style="color:#f9c700"><path fill="currentColor" d="M128 0C57.308 0 0 57.308 0 128c0 70.693 57.308 128 128 128 70.693 0 128-57.307 128-128C256 57.308 198.693 0 128 0m0 33.805c51.939 0 94.195 42.256 94.195 94.195 0 51.94-42.256 94.195-94.195 94.195-51.939 0-94.195-42.255-94.195-94.195 0-51.939 42.256-94.195 94.195-94.195m-12.5 121.838h-.113a6.342 6.342 0 0 1-4.953-2.528L81.56 114.732a6.34 6.34 0 0 1 10.131-7.62l23.993 31.893 6.863-8.478a6.34 6.34 0 0 1 4.926-2.35h.008a6.331 6.331 0 0 1 4.93 2.364l6.59 8.187 37.692-48.594a6.338 6.338 0 0 1 10.015 7.77L144.1 152.837a6.338 6.338 0 0 1-4.95 2.453h-.057a6.335 6.335 0 0 1-4.938-2.364l-6.697-8.319-7.033 8.686a6.336 6.336 0 0 1-4.926 2.35"/></g><text x="45" y="28" fill="#f9c700" font-size="16" font-family="Verdana">Sunny Side Stats WakaTime Stats</text>
  <g transform="translate(0, 40) scale(1, 1)">
      <text x="212.5" y="22.5" font-size="12" text-anchor="middle" fill="#f4c542" font-weight="bold">This week, I mostly wrote JavaScript</text>
      <line x1="70" y1="106.5" x2="371" y2="106.5" stroke="#ccc" stroke-width="0.5" stroke-dasharray="2,2"/>
<line x1="70" y1="91.5" x2="371" y2="91.5" stroke="#ccc" stroke-width="0.5" stroke-dasharray="2,2"/>
<line x1="70" y1="76.5" x2="371" y2="76.5" stroke="#ccc" stroke-width="0.5" stroke-dasharray="2,2"/>
<line x1="70" y1="61.5" x2="371" y2="61.5" stroke="#ccc" stroke-width="0.5" stroke-dasharray="2,2"/>
<line x1="70" y1="46.5" x2="371" y2="46.5" stroke="#ccc" stroke-width="0.5" stroke-dasharray="2,2"/>
<text x="62" y="109.5" font-size="9" text-anchor="end" fill="#f4c542">00:00</text>
<text x="62" y="94.5" font-size="9" text-anchor="end" fill="#f4c542">01:33</text>
<text x="62" y="79.5" font-size="9" text-anchor="end" fill="#f4c542">03:06</text>
<text x="62" y="64.5" font-size="9" text-anchor="end" fill="#f4c542">04:39</text>
<text x="62" y="49.5" font-size="9" text-anchor="end" fill="#f4c542">06:12</text>
<text x="25" y="76.5" font-size="10" fill-opacity="1" text-anchor="middle" transform="rotate(-90, 25, 76.5)" fill="#f4c542">Time</text>

                <rect x="70" y="83.84692103886917" width="30" height="22.653078961130824" fill="#b7ffff" rx="2" ry="2">
                <title>JavaScript: 02:20</title>
                </rect>
            
<text x="85" y="118.5" font-weight="bold" font-size="10" text-anchor="middle" fill="#f4c542">Sun</text>

                <rect x="115" y="51.0984916611639" width="30" height="55.4015083388361" fill="#ffffc1" rx="2" ry="2">
                <title>TypeScript: 05:44</title>
                </rect>
            

                <rect x="115" y="47.82416039415149" width="30" height="3.2743312670124034" fill="#9ebcb1" rx="2" ry="2">
                <title>JSON: 20m</title>
                </rect>
            

                <rect x="115" y="46.678485249050425" width="30" height="1.1456751451010645" fill="#ffbcff" rx="2" ry="2">
                <title>Python: 07m</title>
                </rect>
            

                <rect x="115" y="46.49999999999999" width="30" height="0.17848524905043206" fill="#ffffff" rx="2" ry="2">
                <title>Git Config: 01m</title>
                </rect>
            
<text x="130" y="118.5" font-weight="bold" font-size="10" text-anchor="middle" fill="#f4c542">Mon</text>

                <rect x="160" y="102.34664882829176" width="30" height="4.153351171708244" fill="#ffffc1" rx="2" ry="2">
                <title>TypeScript: 25m</title>
                </rect>
            

                <rect x="160" y="97.44844368754687" width="30" height="4.898205140744892" fill="#9ebcb1" rx="2" ry="2">
                <title>JSON: 30m</title>
                </rect>
            
<text x="175" y="118.5" font-weight="bold" font-size="10" text-anchor="middle" fill="#f4c542">Tue</text>

                <rect x="205" y="93.72927525319176" width="30" height="12.770724746808247" fill="#ffffc1" rx="2" ry="2">
                <title>TypeScript: 01:19</title>
                </rect>
            

                <rect x="205" y="83.14127882096547" width="30" height="10.587996432226294" fill="#9ebcb1" rx="2" ry="2">
                <title>JSON: 01:05</title>
                </rect>
            

                <rect x="205" y="81.99923385935692" width="30" height="1.1420449616085486" fill="#ffbcff" rx="2" ry="2">
                <title>Python: 07m</title>
                </rect>
            

                <rect x="205" y="80.99611266553255" width="30" height="1.0031211938243716" fill="#ffffff" rx="2" ry="2">
                <title>Git Config: 06m</title>
                </rect>
            

                <rect x="205" y="80.96926265197229" width="30" height="0.026850013560268497" fill="#9fa1ff" rx="2" ry="2">
                <title>Other: 00m</title>
                </rect>
            
<text x="220" y="118.5" font-weight="bold" font-size="10" text-anchor="middle" fill="#f4c542">Wed</text>

                <rect x="250" y="96.25513337210876" width="30" height="10.244866627891248" fill="#b7ffff" rx="2" ry="2">
                <title>JavaScript: 01:03</title>
                </rect>
            

                <rect x="250" y="74.99161499732243" width="30" height="21.26351837478633" fill="#ffffc1" rx="2" ry="2">
                <title>TypeScript: 02:12</title>
                </rect>
            
<text x="265" y="118.5" font-weight="bold" font-size="10" text-anchor="middle" fill="#f4c542">Thu</text>

                <rect x="295" y="59.69576466954989" width="30" height="46.80423533045011" fill="#b7ffff" rx="2" ry="2">
                <title>JavaScript: 04:50</title>
                </rect>
            
<text x="310" y="118.5" font-weight="bold" font-size="10" text-anchor="middle" fill="#f4c542">Fri</text>

                <rect x="340" y="90.93424431979552" width="30" height="15.565755680204475" fill="#b7ffff" rx="2" ry="2">
                <title>JavaScript: 01:36</title>
                </rect>
            
<text x="355" y="118.5" font-weight="bold" font-size="10" text-anchor="middle" fill="#f4c542">Sat</text>

            <circle cx="109.5" cy="150.5" r="5" fill="#b7ffff" />
            <text x="121.5" y="154.5" font-size="10" fill="#f4c542">JavaScript</text>
            

            <circle cx="206.5" cy="150.5" r="5" fill="#ffffc1" />
            <text x="218.5" y="154.5" font-size="10" fill="#f4c542">TypeScript</text>
            

            <circle cx="303.5" cy="150.5" r="5" fill="#9ebcb1" />
            <text x="315.5" y="154.5" font-size="10" fill="#f4c542">JSON</text>
            

            <circle cx="109.5" cy="170.5" r="5" fill="#ffbcff" />
            <text x="121.5" y="174.5" font-size="10" fill="#f4c542">Python</text>
            

            <circle cx="206.5" cy="170.5" r="5" fill="#ffffff" />
            <text x="218.5" y="174.5" font-size="10" fill="#f4c542">Git Config</text>
            

            <circle cx="303.5" cy="170.5" r="5" fill="#9fa1ff" />
            <text x="315.5" y="174.5" font-size="10" fill="#f4c542">Other</text>
            
      <text x="212.5" y="202.5" font-size="12" text-anchor="middle" fill="#f4c542"><tspan font-weight="bold">Total:</tspan> 21 hrs 51 mins</text>
    </g>
</svg>