
<svg width="363" height="379" xmlns="http://www.w3.org/2000/svg" style="font-family:Orbitron,sans-serif;">
  <rect
    x="1"
    y="1"
    width="361"
    height="377"
    fill="#0d0d1a"
    stroke="#00fff7"
    stroke-width="2"
    rx="12"
    ry="12"
  />
  <g transform="translate(20,12.5) scale(0.075)" style="color:#00fff7"><path fill="currentColor" d="M128 0C57.308 0 0 57.308 0 128c0 70.693 57.308 128 128 128 70.693 0 128-57.307 128-128C256 57.308 198.693 0 128 0m0 33.805c51.939 0 94.195 42.256 94.195 94.195 0 51.94-42.256 94.195-94.195 94.195-51.939 0-94.195-42.255-94.195-94.195 0-51.939 42.256-94.195 94.195-94.195m-12.5 121.838h-.113a6.342 6.342 0 0 1-4.953-2.528L81.56 114.732a6.34 6.34 0 0 1 10.131-7.62l23.993 31.893 6.863-8.478a6.34 6.34 0 0 1 4.926-2.35h.008a6.331 6.331 0 0 1 4.93 2.364l6.59 8.187 37.692-48.594a6.338 6.338 0 0 1 10.015 7.77L144.1 152.837a6.338 6.338 0 0 1-4.95 2.453h-.057a6.335 6.335 0 0 1-4.938-2.364l-6.697-8.319-7.033 8.686a6.336 6.336 0 0 1-4.926 2.35"/></g><text x="45" y="28" fill="#00fff7" font-size="16" font-family="Orbitron">🛸+Neon+Radar+ WakaTime Stats</text>
  <g transform="translate(0, 40) scale(1, 1)">
      <text x="177.5" y="22.5" font-size="14" text-anchor="middle" fill="#ff00e5" font-weight="bold">This Week's Coding Time by Language</text>
      <path d="M 181.5 119.77731092436973 L 198.25353176717206 127.84538659882544 L 202.39131240389622 145.97418808057648 L 190.79750869537625 160.5123580937073 L 172.20249130462375 160.5123580937073 L 160.60868759610378 145.97418808057648 L 164.74646823282794 127.84538659882544 Z" fill="none" stroke="#87006d" stroke-dasharray="2,2" stroke-width="0.5"/>
<path d="M 181.5 98.3487394957983 L 215.00706353434413 114.48489084470972 L 223.28262480779244 150.74249380821178 L 200.0950173907525 179.81883383447342 L 162.9049826092475 179.81883383447342 L 139.71737519220756 150.74249380821178 L 147.99293646565587 114.48489084470972 Z" fill="none" stroke="#87006d" stroke-dasharray="2,2" stroke-width="0.5"/>
<path d="M 181.5 76.92016806722687 L 231.76059530151622 101.124395090594 L 244.17393721168867 155.5107995358471 L 209.39252608612875 199.12530957523956 L 153.60747391387127 199.12530957523956 L 118.82606278831133 155.5107995358471 L 131.23940469848378 101.12439509059402 Z" fill="none" stroke="#87006d" stroke-dasharray="2,2" stroke-width="0.5"/>
<path d="M 181.5 55.49159663865544 L 248.51412706868828 87.76389933647829 L 265.0652496155849 160.2791052634824 L 218.690034781505 218.43178531600566 L 144.30996521849502 218.43178531600566 L 97.93475038441511 160.2791052634824 L 114.48587293131172 87.76389933647829 Z" fill="none" stroke="#87006d" stroke-dasharray="2,2" stroke-width="0.5"/>
<line x1="181.5" y1="141.20588235294116" x2="181.5" y2="55.49159663865544" stroke="#87006d" stroke-width="0.5"/>
<line x1="181.5" y1="141.20588235294116" x2="248.51412706868828" y2="87.76389933647829" stroke="#87006d" stroke-width="0.5"/>
<line x1="181.5" y1="141.20588235294116" x2="265.0652496155849" y2="160.2791052634824" stroke="#87006d" stroke-width="0.5"/>
<line x1="181.5" y1="141.20588235294116" x2="218.690034781505" y2="218.43178531600566" stroke="#87006d" stroke-width="0.5"/>
<line x1="181.5" y1="141.20588235294116" x2="144.30996521849502" y2="218.43178531600566" stroke="#87006d" stroke-width="0.5"/>
<line x1="181.5" y1="141.20588235294116" x2="97.93475038441511" y2="160.2791052634824" stroke="#87006d" stroke-width="0.5"/>
<line x1="181.5" y1="141.20588235294116" x2="114.48587293131172" y2="87.76389933647829" stroke="#87006d" stroke-width="0.5"/>

          <polygon points="181.5,107.23748365866525 181.5,141.20588235294116 181.5,141.20588235294116 181.5,141.20588235294116 145.5416807515001,215.87410165723006 157.3178028474006,146.72531104943803 150.58821920217582,116.5545597637103" fill="#000040" fill-opacity="0.2" stroke="#000040" stroke-width="2" />
          <circle cx="181.5" cy="107.23748365866525" r="2.2" fill="#000040"><title>TypeScript: 02:12</title></circle>
<circle cx="181.5" cy="141.20588235294116" r="2.2" fill="#000040"><title>TypeScript: 00:00</title></circle>
<circle cx="181.5" cy="141.20588235294116" r="2.2" fill="#000040"><title>TypeScript: 00:00</title></circle>
<circle cx="181.5" cy="141.20588235294116" r="2.2" fill="#000040"><title>TypeScript: 00:00</title></circle>
<circle cx="145.5416807515001" cy="215.87410165723006" r="2.2" fill="#000040"><title>TypeScript: 05:22</title></circle>
<circle cx="157.3178028474006" cy="146.72531104943803" r="2.2" fill="#000040"><title>TypeScript: 01:36</title></circle>
<circle cx="150.58821920217582" cy="116.5545597637103" r="2.2" fill="#000040"><title>TypeScript: 02:33</title></circle>
        

          <polygon points="181.5,124.83974256120555 239.95723319785097,94.587794489962 205.74279345390474,146.73914175978317 181.5,141.20588235294116 180.90628848682903,142.438737013432 181.5,141.20588235294116 172.79443050558095,134.26342234607552" fill="#002000" fill-opacity="0.2" stroke="#002000" stroke-width="2" />
          <circle cx="181.5" cy="124.83974256120555" r="2.2" fill="#002000"><title>JavaScript: 01:03</title></circle>
<circle cx="239.95723319785097" cy="94.587794489962" r="2.2" fill="#002000"><title>JavaScript: 04:50</title></circle>
<circle cx="205.74279345390474" cy="146.73914175978317" r="2.2" fill="#002000"><title>JavaScript: 01:36</title></circle>
<circle cx="181.5" cy="141.20588235294116" r="2.2" fill="#002000"><title>JavaScript: 00:00</title></circle>
<circle cx="180.90628848682903" cy="142.438737013432" r="2.2" fill="#002000"><title>JavaScript: 05m</title></circle>
<circle cx="181.5" cy="141.20588235294116" r="2.2" fill="#002000"><title>JavaScript: 00:00</title></circle>
<circle cx="172.79443050558095" cy="134.26342234607552" r="2.2" fill="#002000"><title>JavaScript: 43m</title></circle>
        

          <polygon points="181.5,141.20588235294116 181.5,141.20588235294116 181.5,141.20588235294116 181.5,141.20588235294116 181.13540784506935,141.96296576367706 180.7401719263543,141.37930815240924 180.18911330930172,140.16048510126916" fill="#580031" fill-opacity="0.2" stroke="#580031" stroke-width="2" />
          <circle cx="181.5" cy="141.20588235294116" r="2.2" fill="#580031"><title>Python: 00:00</title></circle>
<circle cx="181.5" cy="141.20588235294116" r="2.2" fill="#580031"><title>Python: 00:00</title></circle>
<circle cx="181.5" cy="141.20588235294116" r="2.2" fill="#580031"><title>Python: 00:00</title></circle>
<circle cx="181.5" cy="141.20588235294116" r="2.2" fill="#580031"><title>Python: 00:00</title></circle>
<circle cx="181.13540784506935" cy="141.96296576367706" r="2.2" fill="#580031"><title>Python: 03m</title></circle>
<circle cx="180.7401719263543" cy="141.37930815240924" r="2.2" fill="#580031"><title>Python: 03m</title></circle>
<circle cx="180.18911330930172" cy="140.16048510126916" r="2.2" fill="#580031"><title>Python: 06m</title></circle>
        

          <polygon points="181.5,141.20588235294116 181.5,141.20588235294116 181.5,141.20588235294116 181.5,141.20588235294116 181.2265881350965,141.77362794049003 181.5,141.20588235294116 181.46642593887168,141.1791079326346" fill="#002800" fill-opacity="0.2" stroke="#002800" stroke-width="2" />
          <circle cx="181.5" cy="141.20588235294116" r="2.2" fill="#002800"><title>JSON: 00:00</title></circle>
<circle cx="181.5" cy="141.20588235294116" r="2.2" fill="#002800"><title>JSON: 00:00</title></circle>
<circle cx="181.5" cy="141.20588235294116" r="2.2" fill="#002800"><title>JSON: 00:00</title></circle>
<circle cx="181.5" cy="141.20588235294116" r="2.2" fill="#002800"><title>JSON: 00:00</title></circle>
<circle cx="181.2265881350965" cy="141.77362794049003" r="2.2" fill="#002800"><title>JSON: 02m</title></circle>
<circle cx="181.5" cy="141.20588235294116" r="2.2" fill="#002800"><title>JSON: 00:00</title></circle>
<circle cx="181.46642593887168" cy="141.1791079326346" r="2.2" fill="#002800"><title>JSON: 00m</title></circle>
        
<text x="181.5" y="43.49159663865544" font-size="10" text-anchor="middle" alignment-baseline="middle" fill="#ff00e5">Thu</text>
<text x="257.8961048583046" y="80.28202171417348" font-size="10" text-anchor="middle" alignment-baseline="middle" fill="#ff00e5">Fri</text>
<text x="276.76438456176675" y="162.94935647095818" font-size="10" text-anchor="middle" alignment-baseline="middle" fill="#ff00e5">Sat</text>
<text x="223.8966396509157" y="229.24341173083468" font-size="10" text-anchor="middle" alignment-baseline="middle" fill="#ff00e5">Sun</text>
<text x="139.1033603490843" y="229.24341173083468" font-size="10" text-anchor="middle" alignment-baseline="middle" fill="#ff00e5">Mon</text>
<text x="86.23561543823322" y="162.94935647095818" font-size="10" text-anchor="middle" alignment-baseline="middle" fill="#ff00e5">Tue</text>
<text x="105.10389514169536" y="80.2820217141735" font-size="10" text-anchor="middle" alignment-baseline="middle" fill="#ff00e5">Wed</text>
<circle cx="181.5" cy="141.20588235294116" r="0.8" fill="#ff00e5"/>
<circle cx="202.39131240389622" cy="145.97418808057648" r="0.8" fill="#ff00e5"/>

              <text x="200.39131240389622" y="126.90275950914791" font-size="8" text-anchor="start"
                    transform="rotate(77, 200.39131240389622, 126.90275950914791)"
                    fill="#ff00e5">01:23</text>
            
<circle cx="223.28262480779244" cy="150.74249380821178" r="0.8" fill="#ff00e5"/>

              <text x="221.28262480779244" y="130.59963666535464" font-size="8" text-anchor="start"
                    transform="rotate(77, 221.28262480779244, 130.59963666535464)"
                    fill="#ff00e5">02:46</text>
            
<circle cx="244.17393721168867" cy="155.5107995358471" r="0.8" fill="#ff00e5"/>

              <text x="242.17393721168867" y="134.29651382156138" font-size="8" text-anchor="start"
                    transform="rotate(77, 242.17393721168867, 134.29651382156138)"
                    fill="#ff00e5">04:10</text>
            
<circle cx="265.0652496155849" cy="160.2791052634824" r="0.8" fill="#ff00e5"/>

              <text x="263.0652496155849" y="137.99339097776812" font-size="8" text-anchor="start"
                    transform="rotate(77, 263.0652496155849, 137.99339097776812)"
                    fill="#ff00e5">05:33</text>
            

          <text x="50.5" y="264" font-size="10" font-weight="bold" fill="#ff00e5">TypeScript</text>
          <rect x="110.5" y="254" width="60" height="14" rx="4" ry="4" fill="#000040"  fill-opacity="0.25" />
          <text x="140.5" y="265" font-size="9" text-anchor="middle" fill="#87006d">11:44 (57.8%)</text>
        

          <text x="190.5" y="264" font-size="10" font-weight="bold" fill="#ff00e5">JavaScript</text>
          <rect x="250.5" y="254" width="60" height="14" rx="4" ry="4" fill="#002000"  fill-opacity="0.25" />
          <text x="280.5" y="265" font-size="9" text-anchor="middle" fill="#87006d">08:19 (41.0%)</text>
        

          <text x="50.5" y="284" font-size="10" font-weight="bold" fill="#ff00e5">Python</text>
          <rect x="110.5" y="274" width="60" height="14" rx="4" ry="4" fill="#580031"  fill-opacity="0.25" />
          <text x="140.5" y="285" font-size="9" text-anchor="middle" fill="#87006d">12m (1.1%)</text>
        

          <text x="190.5" y="284" font-size="10" font-weight="bold" fill="#ff00e5">JSON</text>
          <rect x="250.5" y="274" width="60" height="14" rx="4" ry="4" fill="#002800"  fill-opacity="0.25" />
          <text x="280.5" y="285" font-size="9" text-anchor="middle" fill="#87006d">02m (0.2%)</text>
    </g>
</svg>