
<svg width="433" height="226.5" xmlns="http://www.w3.org/2000/svg" style="font-family:Verdana,sans-serif;">
  <rect
    x="1"
    y="1"
    width="431"
    height="224.5"
    fill="#001a33"
    stroke="#005577"
    stroke-width="2"
    rx="14"
    ry="14"
  />
  <g transform="translate(20,12.5) scale(0.075)" style="color:#00c2ff"><path fill="currentColor" d="M128 0C57.308 0 0 57.308 0 128c0 70.693 57.308 128 128 128 70.693 0 128-57.307 128-128C256 57.308 198.693 0 128 0m0 33.805c51.939 0 94.195 42.256 94.195 94.195 0 51.94-42.256 94.195-94.195 94.195-51.939 0-94.195-42.255-94.195-94.195 0-51.939 42.256-94.195 94.195-94.195m-12.5 121.838h-.113a6.342 6.342 0 0 1-4.953-2.528L81.56 114.732a6.34 6.34 0 0 1 10.131-7.62l23.993 31.893 6.863-8.478a6.34 6.34 0 0 1 4.926-2.35h.008a6.331 6.331 0 0 1 4.93 2.364l6.59 8.187 37.692-48.594a6.338 6.338 0 0 1 10.015 7.77L144.1 152.837a6.338 6.338 0 0 1-4.95 2.453h-.057a6.335 6.335 0 0 1-4.938-2.364l-6.697-8.319-7.033 8.686a6.336 6.336 0 0 1-4.926 2.35"/></g><text x="45" y="28" fill="#66d9ff" font-size="16" font-family="Verdana">🌊 The Wavetime Report WakaTime Stats</text>
  <g transform="translate(0, 40) scale(1, 1)">
      <text x="212.5" y="22.5" font-size="14" text-anchor="middle" fill="#cceeff" font-weight="bold">I'm most productive on Mondays</text>
      <line x1="85" y1="106.5" x2="356" y2="106.5" stroke="#ccc" stroke-width="0.5" stroke-dasharray="2,2"/>
<line x1="85" y1="91.5" x2="356" y2="91.5" stroke="#ccc" stroke-width="0.5" stroke-dasharray="2,2"/>
<line x1="85" y1="76.5" x2="356" y2="76.5" stroke="#ccc" stroke-width="0.5" stroke-dasharray="2,2"/>
<line x1="85" y1="61.5" x2="356" y2="61.5" stroke="#ccc" stroke-width="0.5" stroke-dasharray="2,2"/>
<line x1="85" y1="46.5" x2="356" y2="46.5" stroke="#ccc" stroke-width="0.5" stroke-dasharray="2,2"/>
<text x="62" y="109.5" font-size="9" text-anchor="end" fill="#cceeff">00:00</text>
<text x="62" y="94.5" font-size="9" text-anchor="end" fill="#cceeff">11m</text>
<text x="62" y="79.5" font-size="9" text-anchor="end" fill="#cceeff">22m</text>
<text x="62" y="64.5" font-size="9" text-anchor="end" fill="#cceeff">33m</text>
<text x="62" y="49.5" font-size="9" text-anchor="end" fill="#cceeff">44m</text>
<text x="22" y="76.5" font-size="9" text-anchor="middle" transform="rotate(-90, 22, 76.5)" fill="#cceeff">Time</text>
<path d="M 85,46.5 C 92.5,46.79735198466246 115,48.128641060085975 130,48.28411190797478 C 145,48.43958275586359 160,46.60066059582142 175,47.432825087332844 C 190,48.26498957884427 205,50.16576444506745 220,53.27709885704335 C 235,56.388433269019245 250,63.767872054090084 265,66.10083155918824 C 280,68.43379106428638 295,67.49931756888715 310,67.27485588763226 C 325,67.05039420637736 347.5,65.17419387432113 355,64.7540614716589
          L 355 106.5
          L 85 106.5
          Z" fill="#0077be" fill-opacity="0.2" />
<path d="M 85,46.5 C 92.5,46.79735198466246 115,48.128641060085975 130,48.28411190797478 C 145,48.43958275586359 160,46.60066059582142 175,47.432825087332844 C 190,48.26498957884427 205,50.16576444506745 220,53.27709885704335 C 235,56.388433269019245 250,63.767872054090084 265,66.10083155918824 C 280,68.43379106428638 295,67.49931756888715 310,67.27485588763226 C 325,67.05039420637736 347.5,65.17419387432113 355,64.7540614716589" fill="none" stroke="#0077be" stroke-width="2" />
<circle cx="85" cy="46.5" r="2.5" fill="#0077be" />
<circle cx="130" cy="48.28411190797478" r="2.5" fill="#0059a0" />
<circle cx="175" cy="47.432825087332844" r="2.5" fill="#004f96" />
<circle cx="220" cy="53.27709885704335" r="2.5" fill="#00458c" />
<circle cx="265" cy="66.10083155918824" r="2.5" fill="#003b82" />
<circle cx="310" cy="67.27485588763226" r="2.5" fill="#003178" />
<circle cx="355" cy="64.7540614716589" r="2.5" fill="#00276e" />
<text x="85" y="40.5" font-size="9" text-anchor="middle" fill="#cceeff" fill-opacity="0.8">44m</text>
<text x="85" y="118.5" font-weight="bold" font-size="10" text-anchor="middle" fill="#cceeff" fill-opacity="0.7">Mon</text>
<text x="85" y="130.5" font-size="9" text-anchor="middle" fill="#cceeff" fill-opacity="0.6">17.1%</text>
<text x="130" y="42.28411190797478" font-size="9" text-anchor="middle" fill="#cceeff" fill-opacity="0.8">43m</text>
<text x="130" y="118.5" font-weight="bold" font-size="10" text-anchor="middle" fill="#cceeff" fill-opacity="0.7">Tue</text>
<text x="130" y="130.5" font-size="9" text-anchor="middle" fill="#cceeff" fill-opacity="0.6">16.5%</text>
<text x="175" y="41.432825087332844" font-size="9" text-anchor="middle" fill="#cceeff" fill-opacity="0.8">43m</text>
<text x="175" y="118.5" font-weight="bold" font-size="10" text-anchor="middle" fill="#cceeff" fill-opacity="0.7">Wed</text>
<text x="175" y="130.5" font-size="9" text-anchor="middle" fill="#cceeff" fill-opacity="0.6">16.8%</text>
<text x="220" y="47.27709885704335" font-size="9" text-anchor="middle" fill="#cceeff" fill-opacity="0.8">39m</text>
<text x="220" y="118.5" font-weight="bold" font-size="10" text-anchor="middle" fill="#cceeff" fill-opacity="0.7">Thu</text>
<text x="220" y="130.5" font-size="9" text-anchor="middle" fill="#cceeff" fill-opacity="0.6">15.1%</text>
<text x="265" y="60.10083155918824" font-size="9" text-anchor="middle" fill="#cceeff" fill-opacity="0.8">29m</text>
<text x="265" y="118.5" font-weight="bold" font-size="10" text-anchor="middle" fill="#cceeff" fill-opacity="0.7">Fri</text>
<text x="265" y="130.5" font-size="9" text-anchor="middle" fill="#cceeff" fill-opacity="0.6">11.5%</text>
<text x="310" y="61.274855887632256" font-size="9" text-anchor="middle" fill="#cceeff" fill-opacity="0.8">29m</text>
<text x="310" y="118.5" font-weight="bold" font-size="10" text-anchor="middle" fill="#cceeff" fill-opacity="0.7">Sat</text>
<text x="310" y="130.5" font-size="9" text-anchor="middle" fill="#cceeff" fill-opacity="0.6">11.1%</text>
<text x="355" y="58.7540614716589" font-size="9" text-anchor="middle" fill="#cceeff" fill-opacity="0.8">30m</text>
<text x="355" y="118.5" font-weight="bold" font-size="10" text-anchor="middle" fill="#cceeff" fill-opacity="0.7">Sun</text>
<text x="355" y="130.5" font-size="9" text-anchor="middle" fill="#cceeff" fill-opacity="0.6">11.9%</text>
      <text x="212.5" y="156.5" font-size="12" text-anchor="middle" fill="#cceeff"><tspan font-weight="bold">Total:</tspan> 4 hrs 21 mins</text>
    </g>
</svg>